solid OpenSCAD_Model
  facet normal -1 0 0
    outer loop
      vertex -15 0 0
      vertex -15 0 6
      vertex -15 170 0
    endloop
  endfacet
  facet normal -1 0 0
    outer loop
      vertex -15 170 0
      vertex -15 0 6
      vertex -15 170 6
    endloop
  endfacet
  facet normal -0.994522 -0.104528 0
    outer loop
      vertex -15 0 0
      vertex -14.6722 -3.11867 0
      vertex -15 0 6
    endloop
  endfacet
  facet normal -0.994522 -0.104528 0
    outer loop
      vertex -15 0 6
      vertex -14.6722 -3.11867 0
      vertex -14.6722 -3.11867 6
    endloop
  endfacet
  facet normal 0 0 -1
    outer loop
      vertex -15 0 0
      vertex -15 170 0
      vertex -14.6722 -3.11867 0
    endloop
  endfacet
  facet normal 0 0 -1
    outer loop
      vertex -14.6722 -3.11867 0
      vertex -15 170 0
      vertex -14.6722 173.119 0
    endloop
  endfacet
  facet normal 0 0 -1
    outer loop
      vertex -14.6722 -3.11867 0
      vertex -14.6722 173.119 0
      vertex -13.7032 176.101 0
    endloop
  endfacet
  facet normal 0 0 -1
    outer loop
      vertex -14.6722 -3.11867 0
      vertex -13.7032 176.101 0
      vertex -12.1353 178.817 0
    endloop
  endfacet
  facet normal 0 0 -1
    outer loop
      vertex -14.6722 -3.11867 0
      vertex -12.1353 178.817 0
      vertex -10.037 181.147 0
    endloop
  endfacet
  facet normal 0 0 -1
    outer loop
      vertex -14.6722 -3.11867 0
      vertex -10.037 181.147 0
      vertex -7.5 182.99 0
    endloop
  endfacet
  facet normal 0 0 -1
    outer loop
      vertex -14.6722 -3.11867 0
      vertex -7.5 182.99 0
      vertex -4.63525 184.266 0
    endloop
  endfacet
  facet normal 0 0 -1
    outer loop
      vertex -3 170 0
      vertex -4.63525 184.266 0
      vertex -1.56793 184.918 0
    endloop
  endfacet
  facet normal 0 0 -1
    outer loop
      vertex 3 170 0
      vertex -1.56793 184.918 0
      vertex 91.5679 184.918 0
    endloop
  endfacet
  facet normal 0 0 -1
    outer loop
      vertex 75.1109 154.87 0
      vertex 91.5679 184.918 0
      vertex 94.6353 184.266 0
    endloop
  endfacet
  facet normal 0 0 -1
    outer loop
      vertex 89.0729 172.853 0
      vertex 94.6353 184.266 0
      vertex 97.5 182.99 0
    endloop
  endfacet
  facet normal 0 0 -1
    outer loop
      vertex 92.4271 171.763 0
      vertex 97.5 182.99 0
      vertex 100.037 181.147 0
    endloop
  endfacet
  facet normal 0 0 -1
    outer loop
      vertex 81.4058 147.879 0
      vertex 100.037 181.147 0
      vertex 102.135 178.817 0
    endloop
  endfacet
  facet normal 0 0 -1
    outer loop
      vertex 10 17 0
      vertex 0.927051 2.85317 0
      vertex -0.927051 2.85317 0
    endloop
  endfacet
  facet normal 0 0 -1
    outer loop
      vertex 89.0729 172.853 0
      vertex 97.5 182.99 0
      vertex 90.9271 172.853 0
    endloop
  endfacet
  facet normal 0 0 -1
    outer loop
      vertex 92.4271 -1.76336 0
      vertex 105 0 0
      vertex 104.672 -3.11867 0
    endloop
  endfacet
  facet normal 0 0 -1
    outer loop
      vertex -14.6722 -3.11867 0
      vertex 104.672 -3.11867 0
      vertex 103.703 -6.10105 0
    endloop
  endfacet
  facet normal 0 0 -1
    outer loop
      vertex -14.6722 -3.11867 0
      vertex 103.703 -6.10105 0
      vertex 102.135 -8.81678 0
    endloop
  endfacet
  facet normal 0 0 -1
    outer loop
      vertex -14.6722 -3.11867 0
      vertex 102.135 -8.81678 0
      vertex 100.037 -11.1472 0
    endloop
  endfacet
  facet normal 0 0 -1
    outer loop
      vertex -14.6722 -3.11867 0
      vertex 100.037 -11.1472 0
      vertex 97.5 -12.9904 0
    endloop
  endfacet
  facet normal 0 0 -1
    outer loop
      vertex -14.6722 -3.11867 0
      vertex 97.5 -12.9904 0
      vertex 94.6353 -14.2658 0
    endloop
  endfacet
  facet normal 0 0 -1
    outer loop
      vertex -14.6722 -3.11867 0
      vertex 94.6353 -14.2658 0
      vertex 91.5679 -14.9178 0
    endloop
  endfacet
  facet normal 0 0 -1
    outer loop
      vertex -14.6722 -3.11867 0
      vertex 91.5679 -14.9178 0
      vertex -1.56793 -14.9178 0
    endloop
  endfacet
  facet normal 0 0 -1
    outer loop
      vertex -14.6722 -3.11867 0
      vertex -1.56793 -14.9178 0
      vertex -4.63525 -14.2658 0
    endloop
  endfacet
  facet normal 0 0 -1
    outer loop
      vertex -14.6722 -3.11867 0
      vertex -4.63525 -14.2658 0
      vertex -7.5 -12.9904 0
    endloop
  endfacet
  facet normal 0 0 -1
    outer loop
      vertex -14.6722 -3.11867 0
      vertex -7.5 -12.9904 0
      vertex -10.037 -11.1472 0
    endloop
  endfacet
  facet normal 0 0 -1
    outer loop
      vertex -14.6722 -3.11867 0
      vertex -10.037 -11.1472 0
      vertex -12.1353 -8.81678 0
    endloop
  endfacet
  facet normal 0 0 -1
    outer loop
      vertex -14.6722 -3.11867 0
      vertex -12.1353 -8.81678 0
      vertex -13.7032 -6.10105 0
    endloop
  endfacet
  facet normal 0 0 -1
    outer loop
      vertex -3 170 0
      vertex -1.56793 184.918 0
      vertex -2.42705 171.763 0
    endloop
  endfacet
  facet normal 0 0 -1
    outer loop
      vertex 89.0166 112.073 0
      vertex 105 170 0
      vertex 105 0 0
    endloop
  endfacet
  facet normal 0 0 -1
    outer loop
      vertex -14.6722 -3.11867 0
      vertex -3 0 0
      vertex -2.42705 -1.76336 0
    endloop
  endfacet
  facet normal 0 0 -1
    outer loop
      vertex -14.6722 -3.11867 0
      vertex -0.927051 -2.85317 0
      vertex 104.672 -3.11867 0
    endloop
  endfacet
  facet normal 0 0 -1
    outer loop
      vertex -0.927051 -2.85317 0
      vertex 0.927051 -2.85317 0
      vertex 104.672 -3.11867 0
    endloop
  endfacet
  facet normal 0 0 -1
    outer loop
      vertex 3 0 0
      vertex 87 0 0
      vertex 2.42705 -1.76336 0
    endloop
  endfacet
  facet normal 0 0 -1
    outer loop
      vertex 92.4271 171.763 0
      vertex 100.037 181.147 0
      vertex 93 170 0
    endloop
  endfacet
  facet normal 0 0 -1
    outer loop
      vertex 75.1109 154.87 0
      vertex 90.9271 167.147 0
      vertex 92.4271 168.237 0
    endloop
  endfacet
  facet normal 0 0 -1
    outer loop
      vertex -14.6722 -3.11867 0
      vertex -2.42705 1.76336 0
      vertex -3 0 0
    endloop
  endfacet
  facet normal 0 0 -1
    outer loop
      vertex -14.6722 -3.11867 0
      vertex -4.63525 184.266 0
      vertex -3 170 0
    endloop
  endfacet
  facet normal 0 0 -1
    outer loop
      vertex -2.42705 168.237 0
      vertex -14.6722 -3.11867 0
      vertex -3 170 0
    endloop
  endfacet
  facet normal 0 0 -1
    outer loop
      vertex 80 17 0
      vertex 2.42705 1.76336 0
      vertex 10 17 0
    endloop
  endfacet
  facet normal 0 0 -1
    outer loop
      vertex -14.6722 -3.11867 0
      vertex -2.42705 168.237 0
      vertex -0.927051 167.147 0
    endloop
  endfacet
  facet normal 0 0 -1
    outer loop
      vertex -14.6722 -3.11867 0
      vertex -0.927051 167.147 0
      vertex 0.927051 167.147 0
    endloop
  endfacet
  facet normal 0 0 -1
    outer loop
      vertex 49.7038 166.182 0
      vertex 0.927051 167.147 0
      vertex 91.5679 184.918 0
    endloop
  endfacet
  facet normal 0 0 -1
    outer loop
      vertex 3 170 0
      vertex 91.5679 184.918 0
      vertex 2.42705 168.237 0
    endloop
  endfacet
  facet normal 0 0 -1
    outer loop
      vertex 2.42705 171.763 0
      vertex -1.56793 184.918 0
      vertex 3 170 0
    endloop
  endfacet
  facet normal 0 0 -1
    outer loop
      vertex -2.42705 171.763 0
      vertex -1.56793 184.918 0
      vertex -0.927051 172.853 0
    endloop
  endfacet
  facet normal 0 0 -1
    outer loop
      vertex 0.927051 172.853 0
      vertex -1.56793 184.918 0
      vertex 2.42705 171.763 0
    endloop
  endfacet
  facet normal 0 0 -1
    outer loop
      vertex -0.927051 172.853 0
      vertex -1.56793 184.918 0
      vertex 0.927051 172.853 0
    endloop
  endfacet
  facet normal 0 0 -1
    outer loop
      vertex 87.5729 -1.76336 0
      vertex 0.927051 -2.85317 0
      vertex 2.42705 -1.76336 0
    endloop
  endfacet
  facet normal 0 0 -1
    outer loop
      vertex 2.42705 168.237 0
      vertex 91.5679 184.918 0
      vertex 0.927051 167.147 0
    endloop
  endfacet
  facet normal 0 0 -1
    outer loop
      vertex -14.6722 -3.11867 0
      vertex 0.927051 167.147 0
      vertex 0 121.429 0
    endloop
  endfacet
  facet normal 0 0 -1
    outer loop
      vertex -14.6722 -3.11867 0
      vertex 0 121.429 0
      vertex 0.983358 112.073 0
    endloop
  endfacet
  facet normal 0 0 -1
    outer loop
      vertex 10 42 0
      vertex 49.7038 76.6751 0
      vertex 80 42 0
    endloop
  endfacet
  facet normal 0 0 -1
    outer loop
      vertex -14.6722 -3.11867 0
      vertex 0.983358 112.073 0
      vertex 3.89045 103.125 0
    endloop
  endfacet
  facet normal 0 0 -1
    outer loop
      vertex 80 42 0
      vertex 105 0 0
      vertex 80 17 0
    endloop
  endfacet
  facet normal 0 0 -1
    outer loop
      vertex -14.6722 -3.11867 0
      vertex 3.89045 103.125 0
      vertex 8.59424 94.9782 0
    endloop
  endfacet
  facet normal 0 0 -1
    outer loop
      vertex -14.6722 -3.11867 0
      vertex 8.59424 94.9782 0
      vertex 14.8891 87.9871 0
    endloop
  endfacet
  facet normal 0 0 -1
    outer loop
      vertex -14.6722 -3.11867 0
      vertex 14.8891 87.9871 0
      vertex 22.5 82.4574 0
    endloop
  endfacet
  facet normal 0 0 -1
    outer loop
      vertex 10 42 0
      vertex 22.5 82.4574 0
      vertex 31.0942 78.631 0
    endloop
  endfacet
  facet normal 0 0 -1
    outer loop
      vertex 75.1109 154.87 0
      vertex 92.4271 168.237 0
      vertex 81.4058 147.879 0
    endloop
  endfacet
  facet normal 0 0 -1
    outer loop
      vertex 90 121.429 0
      vertex 105 170 0
      vertex 89.0166 112.073 0
    endloop
  endfacet
  facet normal 0 0 -1
    outer loop
      vertex 81.4058 147.879 0
      vertex 104.672 173.119 0
      vertex 105 170 0
    endloop
  endfacet
  facet normal 0 0 -1
    outer loop
      vertex 80 42 0
      vertex 58.9058 78.631 0
      vertex 105 0 0
    endloop
  endfacet
  facet normal 0 0 -1
    outer loop
      vertex 81.4058 147.879 0
      vertex 105 170 0
      vertex 86.1095 139.732 0
    endloop
  endfacet
  facet normal 0 0 -1
    outer loop
      vertex 58.9058 78.631 0
      vertex 67.5 82.4574 0
      vertex 105 0 0
    endloop
  endfacet
  facet normal 0 0 -1
    outer loop
      vertex 86.1095 139.732 0
      vertex 105 170 0
      vertex 89.0166 130.785 0
    endloop
  endfacet
  facet normal 0 0 -1
    outer loop
      vertex 67.5 82.4574 0
      vertex 75.1109 87.9871 0
      vertex 105 0 0
    endloop
  endfacet
  facet normal 0 0 -1
    outer loop
      vertex 75.1109 87.9871 0
      vertex 81.4058 94.9782 0
      vertex 105 0 0
    endloop
  endfacet
  facet normal 0 0 -1
    outer loop
      vertex 89.0166 130.785 0
      vertex 105 170 0
      vertex 90 121.429 0
    endloop
  endfacet
  facet normal 0 0 -1
    outer loop
      vertex 81.4058 94.9782 0
      vertex 86.1095 103.125 0
      vertex 105 0 0
    endloop
  endfacet
  facet normal 0 0 -1
    outer loop
      vertex 86.1095 103.125 0
      vertex 89.0166 112.073 0
      vertex 105 0 0
    endloop
  endfacet
  facet normal 0 0 -1
    outer loop
      vertex 75.1109 154.87 0
      vertex 89.0729 167.147 0
      vertex 90.9271 167.147 0
    endloop
  endfacet
  facet normal 0 0 -1
    outer loop
      vertex 75.1109 154.87 0
      vertex 87.5729 168.237 0
      vertex 89.0729 167.147 0
    endloop
  endfacet
  facet normal 0 0 -1
    outer loop
      vertex 92.4271 168.237 0
      vertex 100.037 181.147 0
      vertex 81.4058 147.879 0
    endloop
  endfacet
  facet normal 0 0 -1
    outer loop
      vertex 58.9058 164.226 0
      vertex 91.5679 184.918 0
      vertex 67.5 160.4 0
    endloop
  endfacet
  facet normal 0 0 -1
    outer loop
      vertex 10 42 0
      vertex 31.0942 78.631 0
      vertex 40.2962 76.6751 0
    endloop
  endfacet
  facet normal 0 0 -1
    outer loop
      vertex 31.0942 164.226 0
      vertex 0.927051 167.147 0
      vertex 40.2962 166.182 0
    endloop
  endfacet
  facet normal 0 0 -1
    outer loop
      vertex 40.2962 166.182 0
      vertex 0.927051 167.147 0
      vertex 49.7038 166.182 0
    endloop
  endfacet
  facet normal 0 0 -1
    outer loop
      vertex 58.9058 164.226 0
      vertex 49.7038 166.182 0
      vertex 91.5679 184.918 0
    endloop
  endfacet
  facet normal 0 0 -1
    outer loop
      vertex 10 42 0
      vertex 40.2962 76.6751 0
      vertex 49.7038 76.6751 0
    endloop
  endfacet
  facet normal 0 0 -1
    outer loop
      vertex 22.5 160.4 0
      vertex 0.927051 167.147 0
      vertex 31.0942 164.226 0
    endloop
  endfacet
  facet normal 0 0 -1
    outer loop
      vertex 14.8891 154.87 0
      vertex 0.927051 167.147 0
      vertex 22.5 160.4 0
    endloop
  endfacet
  facet normal 0 0 -1
    outer loop
      vertex 8.59424 147.879 0
      vertex 0.927051 167.147 0
      vertex 14.8891 154.87 0
    endloop
  endfacet
  facet normal 0 0 -1
    outer loop
      vertex 3.89045 139.732 0
      vertex 0.927051 167.147 0
      vertex 8.59424 147.879 0
    endloop
  endfacet
  facet normal 0 0 -1
    outer loop
      vertex 0.983358 130.785 0
      vertex 0.927051 167.147 0
      vertex 3.89045 139.732 0
    endloop
  endfacet
  facet normal 0 0 -1
    outer loop
      vertex 0 121.429 0
      vertex 0.927051 167.147 0
      vertex 0.983358 130.785 0
    endloop
  endfacet
  facet normal 0 0 -1
    outer loop
      vertex -14.6722 -3.11867 0
      vertex 22.5 82.4574 0
      vertex 10 42 0
    endloop
  endfacet
  facet normal 0 0 -1
    outer loop
      vertex 80 17 0
      vertex 3 0 0
      vertex 2.42705 1.76336 0
    endloop
  endfacet
  facet normal 0 0 -1
    outer loop
      vertex 0.927051 2.85317 0
      vertex 10 17 0
      vertex 2.42705 1.76336 0
    endloop
  endfacet
  facet normal 0 0 -1
    outer loop
      vertex 3 0 0
      vertex 80 17 0
      vertex 87 0 0
    endloop
  endfacet
  facet normal 0 0 -1
    outer loop
      vertex 49.7038 76.6751 0
      vertex 58.9058 78.631 0
      vertex 80 42 0
    endloop
  endfacet
  facet normal 0 0 -1
    outer loop
      vertex 92.4271 1.76336 0
      vertex 80 17 0
      vertex 105 0 0
    endloop
  endfacet
  facet normal 0 0 -1
    outer loop
      vertex 92.4271 -1.76336 0
      vertex 104.672 -3.11867 0
      vertex 90.9271 -2.85317 0
    endloop
  endfacet
  facet normal 0 0 -1
    outer loop
      vertex 0.927051 -2.85317 0
      vertex 87.5729 -1.76336 0
      vertex 89.0729 -2.85317 0
    endloop
  endfacet
  facet normal 0 0 -1
    outer loop
      vertex 0.927051 -2.85317 0
      vertex 89.0729 -2.85317 0
      vertex 104.672 -3.11867 0
    endloop
  endfacet
  facet normal 0 0 -1
    outer loop
      vertex 89.0729 -2.85317 0
      vertex 90.9271 -2.85317 0
      vertex 104.672 -3.11867 0
    endloop
  endfacet
  facet normal 0 0 -1
    outer loop
      vertex 93 0 0
      vertex 105 0 0
      vertex 92.4271 -1.76336 0
    endloop
  endfacet
  facet normal 0 0 -1
    outer loop
      vertex 67.5 160.4 0
      vertex 91.5679 184.918 0
      vertex 75.1109 154.87 0
    endloop
  endfacet
  facet normal 0 0 -1
    outer loop
      vertex 90.9271 2.85317 0
      vertex 80 17 0
      vertex 92.4271 1.76336 0
    endloop
  endfacet
  facet normal 0 0 -1
    outer loop
      vertex 93 0 0
      vertex 92.4271 1.76336 0
      vertex 105 0 0
    endloop
  endfacet
  facet normal 0 0 -1
    outer loop
      vertex 87.5729 1.76336 0
      vertex 80 17 0
      vertex 89.0729 2.85317 0
    endloop
  endfacet
  facet normal 0 0 -1
    outer loop
      vertex 87 0 0
      vertex 80 17 0
      vertex 87.5729 1.76336 0
    endloop
  endfacet
  facet normal 0 0 -1
    outer loop
      vertex 81.4058 147.879 0
      vertex 103.703 176.101 0
      vertex 104.672 173.119 0
    endloop
  endfacet
  facet normal 0 0 -1
    outer loop
      vertex 90.9271 172.853 0
      vertex 97.5 182.99 0
      vertex 92.4271 171.763 0
    endloop
  endfacet
  facet normal 0 0 -1
    outer loop
      vertex 87.5729 171.763 0
      vertex 94.6353 184.266 0
      vertex 89.0729 172.853 0
    endloop
  endfacet
  facet normal 0 0 -1
    outer loop
      vertex -0.927051 -2.85317 0
      vertex -14.6722 -3.11867 0
      vertex -2.42705 -1.76336 0
    endloop
  endfacet
  facet normal 0 0 -1
    outer loop
      vertex 87.5729 -1.76336 0
      vertex 2.42705 -1.76336 0
      vertex 87 0 0
    endloop
  endfacet
  facet normal 0 0 -1
    outer loop
      vertex 89.0729 2.85317 0
      vertex 80 17 0
      vertex 90.9271 2.85317 0
    endloop
  endfacet
  facet normal 0 0 -1
    outer loop
      vertex 10 17 0
      vertex -0.927051 2.85317 0
      vertex -2.42705 1.76336 0
    endloop
  endfacet
  facet normal 0 0 -1
    outer loop
      vertex 10 17 0
      vertex -2.42705 1.76336 0
      vertex -14.6722 -3.11867 0
    endloop
  endfacet
  facet normal 0 0 -1
    outer loop
      vertex 93 170 0
      vertex 100.037 181.147 0
      vertex 92.4271 168.237 0
    endloop
  endfacet
  facet normal 0 0 -1
    outer loop
      vertex 10 17 0
      vertex -14.6722 -3.11867 0
      vertex 10 42 0
    endloop
  endfacet
  facet normal 0 0 -1
    outer loop
      vertex 81.4058 147.879 0
      vertex 102.135 178.817 0
      vertex 103.703 176.101 0
    endloop
  endfacet
  facet normal 0 0 -1
    outer loop
      vertex 75.1109 154.87 0
      vertex 94.6353 184.266 0
      vertex 87.5729 171.763 0
    endloop
  endfacet
  facet normal 0 0 -1
    outer loop
      vertex 75.1109 154.87 0
      vertex 87.5729 171.763 0
      vertex 87 170 0
    endloop
  endfacet
  facet normal 0 0 -1
    outer loop
      vertex 75.1109 154.87 0
      vertex 87 170 0
      vertex 87.5729 168.237 0
    endloop
  endfacet
  facet normal -0.994522 0.104528 0
    outer loop
      vertex -15 170 0
      vertex -15 170 6
      vertex -14.6722 173.119 0
    endloop
  endfacet
  facet normal -0.994522 0.104528 0
    outer loop
      vertex -14.6722 173.119 0
      vertex -15 170 6
      vertex -14.6722 173.119 6
    endloop
  endfacet
  facet normal 0 0 1
    outer loop
      vertex -15 170 6
      vertex -15 0 6
      vertex -14.6722 -3.11867 6
    endloop
  endfacet
  facet normal 0 0 1
    outer loop
      vertex -12.1353 -8.81678 6
      vertex -15 170 6
      vertex -13.7032 -6.10105 6
    endloop
  endfacet
  facet normal 0 0 1
    outer loop
      vertex -13.7032 -6.10105 6
      vertex -15 170 6
      vertex -14.6722 -3.11867 6
    endloop
  endfacet
  facet normal 0 0 1
    outer loop
      vertex -10.037 -11.1472 6
      vertex -15 170 6
      vertex -12.1353 -8.81678 6
    endloop
  endfacet
  facet normal 0 0 1
    outer loop
      vertex -7.5 -12.9904 6
      vertex -15 170 6
      vertex -10.037 -11.1472 6
    endloop
  endfacet
  facet normal 0 0 1
    outer loop
      vertex -4.63525 -14.2658 6
      vertex -15 170 6
      vertex -7.5 -12.9904 6
    endloop
  endfacet
  facet normal 0 0 1
    outer loop
      vertex -3 0 6
      vertex -15 170 6
      vertex -4.63525 -14.2658 6
    endloop
  endfacet
  facet normal 0 0 1
    outer loop
      vertex -3 0 6
      vertex -2.42705 1.76336 6
      vertex -15 170 6
    endloop
  endfacet
  facet normal 0 0 1
    outer loop
      vertex 80 42 6
      vertex 102.135 -8.81678 6
      vertex 103.703 -6.10105 6
    endloop
  endfacet
  facet normal 0 0 1
    outer loop
      vertex 80 42 6
      vertex 92.4271 1.76336 6
      vertex 102.135 -8.81678 6
    endloop
  endfacet
  facet normal 0 0 1
    outer loop
      vertex -3 170 6
      vertex -15 170 6
      vertex -2.42705 168.237 6
    endloop
  endfacet
  facet normal 0 0 1
    outer loop
      vertex 10 42 6
      vertex -2.42705 168.237 6
      vertex -15 170 6
    endloop
  endfacet
  facet normal 0 0 1
    outer loop
      vertex 87.5729 -1.76336 6
      vertex 91.5679 -14.9178 6
      vertex 94.6353 -14.2658 6
    endloop
  endfacet
  facet normal 0 0 1
    outer loop
      vertex 80 17 6
      vertex 87.5729 -1.76336 6
      vertex 87 0 6
    endloop
  endfacet
  facet normal 0 0 1
    outer loop
      vertex 80 17 6
      vertex 87 0 6
      vertex 87.5729 1.76336 6
    endloop
  endfacet
  facet normal 0 0 1
    outer loop
      vertex 0.927051 172.853 6
      vertex 97.5 182.99 6
      vertex 94.6353 184.266 6
    endloop
  endfacet
  facet normal 0 0 1
    outer loop
      vertex 0.927051 172.853 6
      vertex 94.6353 184.266 6
      vertex 91.5679 184.918 6
    endloop
  endfacet
  facet normal 0 0 1
    outer loop
      vertex -4.63525 184.266 6
      vertex -15 170 6
      vertex -1.56793 184.918 6
    endloop
  endfacet
  facet normal 0 0 1
    outer loop
      vertex -7.5 182.99 6
      vertex -15 170 6
      vertex -4.63525 184.266 6
    endloop
  endfacet
  facet normal 0 0 1
    outer loop
      vertex -10.037 181.147 6
      vertex -15 170 6
      vertex -7.5 182.99 6
    endloop
  endfacet
  facet normal 0 0 1
    outer loop
      vertex -12.1353 178.817 6
      vertex -15 170 6
      vertex -10.037 181.147 6
    endloop
  endfacet
  facet normal 0 0 1
    outer loop
      vertex -13.7032 176.101 6
      vertex -15 170 6
      vertex -12.1353 178.817 6
    endloop
  endfacet
  facet normal 0 0 1
    outer loop
      vertex -14.6722 173.119 6
      vertex -15 170 6
      vertex -13.7032 176.101 6
    endloop
  endfacet
  facet normal 0 0 1
    outer loop
      vertex -0.927051 -2.85317 6
      vertex -2.42705 -1.76336 6
      vertex -1.56793 -14.9178 6
    endloop
  endfacet
  facet normal 0 0 1
    outer loop
      vertex -1.56793 -14.9178 6
      vertex -3 0 6
      vertex -4.63525 -14.2658 6
    endloop
  endfacet
  facet normal 0 0 1
    outer loop
      vertex -0.927051 2.85317 6
      vertex -15 170 6
      vertex -2.42705 1.76336 6
    endloop
  endfacet
  facet normal 0 0 1
    outer loop
      vertex 0.927051 2.85317 6
      vertex -15 170 6
      vertex -0.927051 2.85317 6
    endloop
  endfacet
  facet normal 0 0 1
    outer loop
      vertex 2.42705 1.76336 6
      vertex 3 0 6
      vertex 91.5679 -14.9178 6
    endloop
  endfacet
  facet normal 0 0 1
    outer loop
      vertex 10 17 6
      vertex -15 170 6
      vertex 0.927051 2.85317 6
    endloop
  endfacet
  facet normal 0 0 1
    outer loop
      vertex 2.42705 -1.76336 6
      vertex 0.927051 -2.85317 6
      vertex 91.5679 -14.9178 6
    endloop
  endfacet
  facet normal 0 0 1
    outer loop
      vertex 91.5679 -14.9178 6
      vertex 3 0 6
      vertex 2.42705 -1.76336 6
    endloop
  endfacet
  facet normal 0 0 1
    outer loop
      vertex 91.5679 -14.9178 6
      vertex 0.927051 -2.85317 6
      vertex -1.56793 -14.9178 6
    endloop
  endfacet
  facet normal 0 0 1
    outer loop
      vertex 90.9271 172.853 6
      vertex 92.4271 171.763 6
      vertex 104.672 173.119 6
    endloop
  endfacet
  facet normal 0 0 1
    outer loop
      vertex 0.927051 -2.85317 6
      vertex -0.927051 -2.85317 6
      vertex -1.56793 -14.9178 6
    endloop
  endfacet
  facet normal 0 0 1
    outer loop
      vertex 87.5729 171.763 6
      vertex 89.0729 172.853 6
      vertex 2.42705 171.763 6
    endloop
  endfacet
  facet normal 0 0 1
    outer loop
      vertex 10 42 6
      vertex -0.927051 167.147 6
      vertex -2.42705 168.237 6
    endloop
  endfacet
  facet normal 0 0 1
    outer loop
      vertex 3 170 6
      vertex 2.42705 168.237 6
      vertex 87 170 6
    endloop
  endfacet
  facet normal 0 0 1
    outer loop
      vertex -1.56793 184.918 6
      vertex -15 170 6
      vertex -2.42705 171.763 6
    endloop
  endfacet
  facet normal 0 0 1
    outer loop
      vertex -1.56793 184.918 6
      vertex -0.927051 172.853 6
      vertex 91.5679 184.918 6
    endloop
  endfacet
  facet normal 0 0 1
    outer loop
      vertex -1.56793 184.918 6
      vertex -2.42705 171.763 6
      vertex -0.927051 172.853 6
    endloop
  endfacet
  facet normal 0 0 1
    outer loop
      vertex -0.927051 172.853 6
      vertex 0.927051 172.853 6
      vertex 91.5679 184.918 6
    endloop
  endfacet
  facet normal 0 0 1
    outer loop
      vertex 97.5 182.99 6
      vertex 2.42705 171.763 6
      vertex 100.037 181.147 6
    endloop
  endfacet
  facet normal 0 0 1
    outer loop
      vertex 0.927051 172.853 6
      vertex 2.42705 171.763 6
      vertex 97.5 182.99 6
    endloop
  endfacet
  facet normal 0 0 1
    outer loop
      vertex 93 0 6
      vertex 92.4271 -1.76336 6
      vertex 100.037 -11.1472 6
    endloop
  endfacet
  facet normal 0 0 1
    outer loop
      vertex 87.5729 1.76336 6
      vertex 89.0729 2.85317 6
      vertex 80 17 6
    endloop
  endfacet
  facet normal 0 0 1
    outer loop
      vertex 91.5679 -14.9178 6
      vertex 10 17 6
      vertex 0.927051 2.85317 6
    endloop
  endfacet
  facet normal 0 0 1
    outer loop
      vertex 10 42 6
      vertex -15 170 6
      vertex 10 17 6
    endloop
  endfacet
  facet normal 0 0 1
    outer loop
      vertex 80 42 6
      vertex 104.672 -3.11867 6
      vertex 105 0 6
    endloop
  endfacet
  facet normal 0 0 1
    outer loop
      vertex 80 42 6
      vertex 103.703 -6.10105 6
      vertex 104.672 -3.11867 6
    endloop
  endfacet
  facet normal 0 0 1
    outer loop
      vertex 105 170 6
      vertex 80 42 6
      vertex 105 0 6
    endloop
  endfacet
  facet normal 0 0 1
    outer loop
      vertex 87.5729 168.237 6
      vertex 2.42705 168.237 6
      vertex 80 42 6
    endloop
  endfacet
  facet normal 0 0 1
    outer loop
      vertex 92.4271 -1.76336 6
      vertex 90.9271 -2.85317 6
      vertex 97.5 -12.9904 6
    endloop
  endfacet
  facet normal 0 0 1
    outer loop
      vertex 97.5 -12.9904 6
      vertex 87.5729 -1.76336 6
      vertex 94.6353 -14.2658 6
    endloop
  endfacet
  facet normal 0 0 1
    outer loop
      vertex 90.9271 -2.85317 6
      vertex 89.0729 -2.85317 6
      vertex 97.5 -12.9904 6
    endloop
  endfacet
  facet normal 0 0 1
    outer loop
      vertex 80 42 6
      vertex 90.9271 2.85317 6
      vertex 92.4271 1.76336 6
    endloop
  endfacet
  facet normal 0 0 1
    outer loop
      vertex 102.135 -8.81678 6
      vertex 92.4271 1.76336 6
      vertex 100.037 -11.1472 6
    endloop
  endfacet
  facet normal 0 0 1
    outer loop
      vertex 92.4271 1.76336 6
      vertex 93 0 6
      vertex 100.037 -11.1472 6
    endloop
  endfacet
  facet normal 0 0 1
    outer loop
      vertex 100.037 -11.1472 6
      vertex 92.4271 -1.76336 6
      vertex 97.5 -12.9904 6
    endloop
  endfacet
  facet normal 0 0 1
    outer loop
      vertex 87.5729 168.237 6
      vertex 87 170 6
      vertex 2.42705 168.237 6
    endloop
  endfacet
  facet normal 0 0 1
    outer loop
      vertex 80 42 6
      vertex 80 17 6
      vertex 90.9271 2.85317 6
    endloop
  endfacet
  facet normal 0 0 1
    outer loop
      vertex 97.5 -12.9904 6
      vertex 89.0729 -2.85317 6
      vertex 87.5729 -1.76336 6
    endloop
  endfacet
  facet normal 0 0 1
    outer loop
      vertex 89.0729 167.147 6
      vertex 87.5729 168.237 6
      vertex 80 42 6
    endloop
  endfacet
  facet normal 0 0 1
    outer loop
      vertex 87.5729 171.763 6
      vertex 2.42705 171.763 6
      vertex 3 170 6
    endloop
  endfacet
  facet normal 0 0 1
    outer loop
      vertex 89.0729 2.85317 6
      vertex 90.9271 2.85317 6
      vertex 80 17 6
    endloop
  endfacet
  facet normal 0 0 1
    outer loop
      vertex 87.5729 171.763 6
      vertex 3 170 6
      vertex 87 170 6
    endloop
  endfacet
  facet normal 0 0 1
    outer loop
      vertex 103.703 176.101 6
      vertex 89.0729 172.853 6
      vertex 104.672 173.119 6
    endloop
  endfacet
  facet normal 0 0 1
    outer loop
      vertex 80 17 6
      vertex 91.5679 -14.9178 6
      vertex 87.5729 -1.76336 6
    endloop
  endfacet
  facet normal 0 0 1
    outer loop
      vertex 89.0729 172.853 6
      vertex 90.9271 172.853 6
      vertex 104.672 173.119 6
    endloop
  endfacet
  facet normal 0 0 1
    outer loop
      vertex 80 17 6
      vertex 10 17 6
      vertex 91.5679 -14.9178 6
    endloop
  endfacet
  facet normal 0 0 1
    outer loop
      vertex 93 170 6
      vertex 92.4271 168.237 6
      vertex 105 170 6
    endloop
  endfacet
  facet normal 0 0 1
    outer loop
      vertex 104.672 173.119 6
      vertex 93 170 6
      vertex 105 170 6
    endloop
  endfacet
  facet normal 0 0 1
    outer loop
      vertex 105 170 6
      vertex 92.4271 168.237 6
      vertex 80 42 6
    endloop
  endfacet
  facet normal 0 0 1
    outer loop
      vertex 92.4271 168.237 6
      vertex 90.9271 167.147 6
      vertex 80 42 6
    endloop
  endfacet
  facet normal 0 0 1
    outer loop
      vertex 90.9271 167.147 6
      vertex 89.0729 167.147 6
      vertex 80 42 6
    endloop
  endfacet
  facet normal 0 0 1
    outer loop
      vertex 0.927051 2.85317 6
      vertex 2.42705 1.76336 6
      vertex 91.5679 -14.9178 6
    endloop
  endfacet
  facet normal 0 0 1
    outer loop
      vertex -2.42705 -1.76336 6
      vertex -3 0 6
      vertex -1.56793 -14.9178 6
    endloop
  endfacet
  facet normal 0 0 1
    outer loop
      vertex 2.42705 171.763 6
      vertex 102.135 178.817 6
      vertex 100.037 181.147 6
    endloop
  endfacet
  facet normal 0 0 1
    outer loop
      vertex 2.42705 171.763 6
      vertex 103.703 176.101 6
      vertex 102.135 178.817 6
    endloop
  endfacet
  facet normal 0 0 1
    outer loop
      vertex 2.42705 171.763 6
      vertex 89.0729 172.853 6
      vertex 103.703 176.101 6
    endloop
  endfacet
  facet normal 0 0 1
    outer loop
      vertex 92.4271 171.763 6
      vertex 93 170 6
      vertex 104.672 173.119 6
    endloop
  endfacet
  facet normal 0 0 1
    outer loop
      vertex -3 170 6
      vertex -2.42705 171.763 6
      vertex -15 170 6
    endloop
  endfacet
  facet normal 0 0 1
    outer loop
      vertex 10 42 6
      vertex 0.927051 167.147 6
      vertex -0.927051 167.147 6
    endloop
  endfacet
  facet normal 0 0 1
    outer loop
      vertex 10 42 6
      vertex 2.42705 168.237 6
      vertex 0.927051 167.147 6
    endloop
  endfacet
  facet normal 0 0 1
    outer loop
      vertex 10 42 6
      vertex 80 42 6
      vertex 2.42705 168.237 6
    endloop
  endfacet
  facet normal -0.951057 -0.309017 0
    outer loop
      vertex -14.6722 -3.11867 0
      vertex -13.7032 -6.10105 0
      vertex -14.6722 -3.11867 6
    endloop
  endfacet
  facet normal -0.951057 -0.309017 0
    outer loop
      vertex -14.6722 -3.11867 6
      vertex -13.7032 -6.10105 0
      vertex -13.7032 -6.10105 6
    endloop
  endfacet
  facet normal -0.866025 -0.5 0
    outer loop
      vertex -13.7032 -6.10105 0
      vertex -12.1353 -8.81678 0
      vertex -13.7032 -6.10105 6
    endloop
  endfacet
  facet normal -0.866025 -0.5 0
    outer loop
      vertex -13.7032 -6.10105 6
      vertex -12.1353 -8.81678 0
      vertex -12.1353 -8.81678 6
    endloop
  endfacet
  facet normal -0.743145 -0.669131 0
    outer loop
      vertex -12.1353 -8.81678 0
      vertex -10.037 -11.1472 0
      vertex -12.1353 -8.81678 6
    endloop
  endfacet
  facet normal -0.743145 -0.669131 0
    outer loop
      vertex -12.1353 -8.81678 6
      vertex -10.037 -11.1472 0
      vertex -10.037 -11.1472 6
    endloop
  endfacet
  facet normal -0.587785 -0.809017 0
    outer loop
      vertex -10.037 -11.1472 6
      vertex -10.037 -11.1472 0
      vertex -7.5 -12.9904 0
    endloop
  endfacet
  facet normal -0.587785 -0.809017 0
    outer loop
      vertex -7.5 -12.9904 6
      vertex -10.037 -11.1472 6
      vertex -7.5 -12.9904 0
    endloop
  endfacet
  facet normal -0.406737 -0.913545 0
    outer loop
      vertex -7.5 -12.9904 6
      vertex -7.5 -12.9904 0
      vertex -4.63525 -14.2658 0
    endloop
  endfacet
  facet normal -0.406737 -0.913545 0
    outer loop
      vertex -4.63525 -14.2658 6
      vertex -7.5 -12.9904 6
      vertex -4.63525 -14.2658 0
    endloop
  endfacet
  facet normal -0.207911 -0.978148 0
    outer loop
      vertex -4.63525 -14.2658 6
      vertex -4.63525 -14.2658 0
      vertex -1.56793 -14.9178 0
    endloop
  endfacet
  facet normal -0.207911 -0.978148 0
    outer loop
      vertex -1.56793 -14.9178 6
      vertex -4.63525 -14.2658 6
      vertex -1.56793 -14.9178 0
    endloop
  endfacet
  facet normal 0 -1 0
    outer loop
      vertex -1.56793 -14.9178 6
      vertex -1.56793 -14.9178 0
      vertex 91.5679 -14.9178 0
    endloop
  endfacet
  facet normal 0 -1 0
    outer loop
      vertex 91.5679 -14.9178 6
      vertex -1.56793 -14.9178 6
      vertex 91.5679 -14.9178 0
    endloop
  endfacet
  facet normal 0.207911 -0.978148 0
    outer loop
      vertex 91.5679 -14.9178 6
      vertex 91.5679 -14.9178 0
      vertex 94.6353 -14.2658 0
    endloop
  endfacet
  facet normal 0.207911 -0.978148 0
    outer loop
      vertex 94.6353 -14.2658 6
      vertex 91.5679 -14.9178 6
      vertex 94.6353 -14.2658 0
    endloop
  endfacet
  facet normal 0.406737 -0.913545 0
    outer loop
      vertex 94.6353 -14.2658 6
      vertex 94.6353 -14.2658 0
      vertex 97.5 -12.9904 0
    endloop
  endfacet
  facet normal 0.406737 -0.913545 0
    outer loop
      vertex 97.5 -12.9904 6
      vertex 94.6353 -14.2658 6
      vertex 97.5 -12.9904 0
    endloop
  endfacet
  facet normal 0.587785 -0.809017 0
    outer loop
      vertex 97.5 -12.9904 6
      vertex 97.5 -12.9904 0
      vertex 100.037 -11.1472 0
    endloop
  endfacet
  facet normal 0.587785 -0.809017 0
    outer loop
      vertex 100.037 -11.1472 6
      vertex 97.5 -12.9904 6
      vertex 100.037 -11.1472 0
    endloop
  endfacet
  facet normal 0.743145 -0.669131 0
    outer loop
      vertex 100.037 -11.1472 6
      vertex 100.037 -11.1472 0
      vertex 102.135 -8.81678 0
    endloop
  endfacet
  facet normal 0.743145 -0.669131 0
    outer loop
      vertex 102.135 -8.81678 6
      vertex 100.037 -11.1472 6
      vertex 102.135 -8.81678 0
    endloop
  endfacet
  facet normal 0.866025 -0.5 0
    outer loop
      vertex 102.135 -8.81678 6
      vertex 102.135 -8.81678 0
      vertex 103.703 -6.10105 0
    endloop
  endfacet
  facet normal 0.866025 -0.5 0
    outer loop
      vertex 103.703 -6.10105 6
      vertex 102.135 -8.81678 6
      vertex 103.703 -6.10105 0
    endloop
  endfacet
  facet normal 0.951057 -0.309017 0
    outer loop
      vertex 103.703 -6.10105 6
      vertex 103.703 -6.10105 0
      vertex 104.672 -3.11867 0
    endloop
  endfacet
  facet normal 0.951057 -0.309017 0
    outer loop
      vertex 104.672 -3.11867 6
      vertex 103.703 -6.10105 6
      vertex 104.672 -3.11867 0
    endloop
  endfacet
  facet normal 0.994522 -0.104528 0
    outer loop
      vertex 104.672 -3.11867 6
      vertex 104.672 -3.11867 0
      vertex 105 0 0
    endloop
  endfacet
  facet normal 0.994522 -0.104528 0
    outer loop
      vertex 105 0 6
      vertex 104.672 -3.11867 6
      vertex 105 0 0
    endloop
  endfacet
  facet normal 1 0 0
    outer loop
      vertex 105 0 6
      vertex 105 0 0
      vertex 105 170 0
    endloop
  endfacet
  facet normal 1 0 0
    outer loop
      vertex 105 170 6
      vertex 105 0 6
      vertex 105 170 0
    endloop
  endfacet
  facet normal 0.994522 0.104528 0
    outer loop
      vertex 105 170 0
      vertex 104.672 173.119 0
      vertex 104.672 173.119 6
    endloop
  endfacet
  facet normal 0.994522 0.104528 0
    outer loop
      vertex 105 170 6
      vertex 105 170 0
      vertex 104.672 173.119 6
    endloop
  endfacet
  facet normal 0.951057 0.309017 0
    outer loop
      vertex 104.672 173.119 0
      vertex 103.703 176.101 0
      vertex 103.703 176.101 6
    endloop
  endfacet
  facet normal 0.951057 0.309017 0
    outer loop
      vertex 104.672 173.119 6
      vertex 104.672 173.119 0
      vertex 103.703 176.101 6
    endloop
  endfacet
  facet normal 0.866025 0.5 0
    outer loop
      vertex 103.703 176.101 0
      vertex 102.135 178.817 0
      vertex 102.135 178.817 6
    endloop
  endfacet
  facet normal 0.866025 0.5 0
    outer loop
      vertex 103.703 176.101 6
      vertex 103.703 176.101 0
      vertex 102.135 178.817 6
    endloop
  endfacet
  facet normal 0.743145 0.669131 0
    outer loop
      vertex 102.135 178.817 0
      vertex 100.037 181.147 0
      vertex 100.037 181.147 6
    endloop
  endfacet
  facet normal 0.743145 0.669131 0
    outer loop
      vertex 102.135 178.817 6
      vertex 102.135 178.817 0
      vertex 100.037 181.147 6
    endloop
  endfacet
  facet normal 0.587785 0.809017 0
    outer loop
      vertex 97.5 182.99 0
      vertex 97.5 182.99 6
      vertex 100.037 181.147 0
    endloop
  endfacet
  facet normal 0.587785 0.809017 0
    outer loop
      vertex 100.037 181.147 0
      vertex 97.5 182.99 6
      vertex 100.037 181.147 6
    endloop
  endfacet
  facet normal 0.406737 0.913545 0
    outer loop
      vertex 94.6353 184.266 0
      vertex 94.6353 184.266 6
      vertex 97.5 182.99 0
    endloop
  endfacet
  facet normal 0.406737 0.913545 0
    outer loop
      vertex 97.5 182.99 0
      vertex 94.6353 184.266 6
      vertex 97.5 182.99 6
    endloop
  endfacet
  facet normal 0.207911 0.978148 0
    outer loop
      vertex 91.5679 184.918 0
      vertex 91.5679 184.918 6
      vertex 94.6353 184.266 0
    endloop
  endfacet
  facet normal 0.207911 0.978148 0
    outer loop
      vertex 94.6353 184.266 0
      vertex 91.5679 184.918 6
      vertex 94.6353 184.266 6
    endloop
  endfacet
  facet normal 0 1 0
    outer loop
      vertex -1.56793 184.918 0
      vertex -1.56793 184.918 6
      vertex 91.5679 184.918 0
    endloop
  endfacet
  facet normal 0 1 0
    outer loop
      vertex 91.5679 184.918 0
      vertex -1.56793 184.918 6
      vertex 91.5679 184.918 6
    endloop
  endfacet
  facet normal -0.207911 0.978148 0
    outer loop
      vertex -4.63525 184.266 0
      vertex -4.63525 184.266 6
      vertex -1.56793 184.918 0
    endloop
  endfacet
  facet normal -0.207911 0.978148 0
    outer loop
      vertex -1.56793 184.918 0
      vertex -4.63525 184.266 6
      vertex -1.56793 184.918 6
    endloop
  endfacet
  facet normal -0.406737 0.913545 0
    outer loop
      vertex -7.5 182.99 0
      vertex -7.5 182.99 6
      vertex -4.63525 184.266 0
    endloop
  endfacet
  facet normal -0.406737 0.913545 0
    outer loop
      vertex -4.63525 184.266 0
      vertex -7.5 182.99 6
      vertex -4.63525 184.266 6
    endloop
  endfacet
  facet normal -0.587785 0.809017 0
    outer loop
      vertex -10.037 181.147 0
      vertex -10.037 181.147 6
      vertex -7.5 182.99 0
    endloop
  endfacet
  facet normal -0.587785 0.809017 0
    outer loop
      vertex -7.5 182.99 0
      vertex -10.037 181.147 6
      vertex -7.5 182.99 6
    endloop
  endfacet
  facet normal -0.743145 0.669131 0
    outer loop
      vertex -12.1353 178.817 0
      vertex -12.1353 178.817 6
      vertex -10.037 181.147 0
    endloop
  endfacet
  facet normal -0.743145 0.669131 0
    outer loop
      vertex -10.037 181.147 0
      vertex -12.1353 178.817 6
      vertex -10.037 181.147 6
    endloop
  endfacet
  facet normal -0.866025 0.5 0
    outer loop
      vertex -13.7032 176.101 0
      vertex -13.7032 176.101 6
      vertex -12.1353 178.817 0
    endloop
  endfacet
  facet normal -0.866025 0.5 0
    outer loop
      vertex -12.1353 178.817 0
      vertex -13.7032 176.101 6
      vertex -12.1353 178.817 6
    endloop
  endfacet
  facet normal -0.951057 0.309017 0
    outer loop
      vertex -14.6722 173.119 0
      vertex -14.6722 173.119 6
      vertex -13.7032 176.101 0
    endloop
  endfacet
  facet normal -0.951057 0.309017 0
    outer loop
      vertex -13.7032 176.101 0
      vertex -14.6722 173.119 6
      vertex -13.7032 176.101 6
    endloop
  endfacet
  facet normal 0.951057 0.309017 0
    outer loop
      vertex -3 0 6
      vertex -2.42705 -1.76336 6
      vertex -2.42705 -1.76336 0
    endloop
  endfacet
  facet normal 0.951057 0.309017 0
    outer loop
      vertex -3 0 0
      vertex -3 0 6
      vertex -2.42705 -1.76336 0
    endloop
  endfacet
  facet normal 0.951057 -0.309017 0
    outer loop
      vertex -2.42705 1.76336 0
      vertex -2.42705 1.76336 6
      vertex -3 0 6
    endloop
  endfacet
  facet normal 0.951057 -0.309017 0
    outer loop
      vertex -3 0 0
      vertex -2.42705 1.76336 0
      vertex -3 0 6
    endloop
  endfacet
  facet normal 0.587785 -0.809017 0
    outer loop
      vertex -0.927051 2.85317 0
      vertex -0.927051 2.85317 6
      vertex -2.42705 1.76336 6
    endloop
  endfacet
  facet normal 0.587785 -0.809017 0
    outer loop
      vertex -2.42705 1.76336 0
      vertex -0.927051 2.85317 0
      vertex -2.42705 1.76336 6
    endloop
  endfacet
  facet normal 0 -1 0
    outer loop
      vertex 0.927051 2.85317 0
      vertex 0.927051 2.85317 6
      vertex -0.927051 2.85317 6
    endloop
  endfacet
  facet normal 0 -1 0
    outer loop
      vertex -0.927051 2.85317 0
      vertex 0.927051 2.85317 0
      vertex -0.927051 2.85317 6
    endloop
  endfacet
  facet normal -0.587785 -0.809017 0
    outer loop
      vertex 2.42705 1.76336 0
      vertex 2.42705 1.76336 6
      vertex 0.927051 2.85317 6
    endloop
  endfacet
  facet normal -0.587785 -0.809017 0
    outer loop
      vertex 0.927051 2.85317 0
      vertex 2.42705 1.76336 0
      vertex 0.927051 2.85317 6
    endloop
  endfacet
  facet normal -0.951057 -0.309017 0
    outer loop
      vertex 3 0 6
      vertex 2.42705 1.76336 6
      vertex 3 0 0
    endloop
  endfacet
  facet normal -0.951057 -0.309017 0
    outer loop
      vertex 3 0 0
      vertex 2.42705 1.76336 6
      vertex 2.42705 1.76336 0
    endloop
  endfacet
  facet normal -0.951057 0.309017 0
    outer loop
      vertex 3 0 6
      vertex 3 0 0
      vertex 2.42705 -1.76336 6
    endloop
  endfacet
  facet normal -0.951057 0.309017 0
    outer loop
      vertex 2.42705 -1.76336 6
      vertex 3 0 0
      vertex 2.42705 -1.76336 0
    endloop
  endfacet
  facet normal -0.587785 0.809017 0
    outer loop
      vertex 2.42705 -1.76336 6
      vertex 2.42705 -1.76336 0
      vertex 0.927051 -2.85317 6
    endloop
  endfacet
  facet normal -0.587785 0.809017 0
    outer loop
      vertex 0.927051 -2.85317 6
      vertex 2.42705 -1.76336 0
      vertex 0.927051 -2.85317 0
    endloop
  endfacet
  facet normal 0 1 0
    outer loop
      vertex 0.927051 -2.85317 6
      vertex 0.927051 -2.85317 0
      vertex -0.927051 -2.85317 6
    endloop
  endfacet
  facet normal 0 1 0
    outer loop
      vertex -0.927051 -2.85317 6
      vertex 0.927051 -2.85317 0
      vertex -0.927051 -2.85317 0
    endloop
  endfacet
  facet normal 0.587785 0.809017 0
    outer loop
      vertex -0.927051 -2.85317 6
      vertex -0.927051 -2.85317 0
      vertex -2.42705 -1.76336 6
    endloop
  endfacet
  facet normal 0.587785 0.809017 0
    outer loop
      vertex -2.42705 -1.76336 6
      vertex -0.927051 -2.85317 0
      vertex -2.42705 -1.76336 0
    endloop
  endfacet
  facet normal 0.951057 -0.309017 0
    outer loop
      vertex -2.42705 171.763 0
      vertex -2.42705 171.763 6
      vertex -3 170 6
    endloop
  endfacet
  facet normal 0.951057 -0.309017 0
    outer loop
      vertex -3 170 0
      vertex -2.42705 171.763 0
      vertex -3 170 6
    endloop
  endfacet
  facet normal 0.951057 0.309017 0
    outer loop
      vertex -3 170 6
      vertex -2.42705 168.237 6
      vertex -2.42705 168.237 0
    endloop
  endfacet
  facet normal 0.951057 0.309017 0
    outer loop
      vertex -3 170 0
      vertex -3 170 6
      vertex -2.42705 168.237 0
    endloop
  endfacet
  facet normal 0.587785 -0.809017 0
    outer loop
      vertex -0.927051 172.853 0
      vertex -0.927051 172.853 6
      vertex -2.42705 171.763 6
    endloop
  endfacet
  facet normal 0.587785 -0.809017 0
    outer loop
      vertex -2.42705 171.763 0
      vertex -0.927051 172.853 0
      vertex -2.42705 171.763 6
    endloop
  endfacet
  facet normal 0 -1 0
    outer loop
      vertex 0.927051 172.853 0
      vertex 0.927051 172.853 6
      vertex -0.927051 172.853 6
    endloop
  endfacet
  facet normal 0 -1 0
    outer loop
      vertex -0.927051 172.853 0
      vertex 0.927051 172.853 0
      vertex -0.927051 172.853 6
    endloop
  endfacet
  facet normal -0.587785 -0.809017 0
    outer loop
      vertex 2.42705 171.763 0
      vertex 2.42705 171.763 6
      vertex 0.927051 172.853 6
    endloop
  endfacet
  facet normal -0.587785 -0.809017 0
    outer loop
      vertex 0.927051 172.853 0
      vertex 2.42705 171.763 0
      vertex 0.927051 172.853 6
    endloop
  endfacet
  facet normal -0.951057 -0.309017 0
    outer loop
      vertex 3 170 6
      vertex 2.42705 171.763 6
      vertex 3 170 0
    endloop
  endfacet
  facet normal -0.951057 -0.309017 0
    outer loop
      vertex 3 170 0
      vertex 2.42705 171.763 6
      vertex 2.42705 171.763 0
    endloop
  endfacet
  facet normal -0.951057 0.309017 0
    outer loop
      vertex 3 170 6
      vertex 3 170 0
      vertex 2.42705 168.237 6
    endloop
  endfacet
  facet normal -0.951057 0.309017 0
    outer loop
      vertex 2.42705 168.237 6
      vertex 3 170 0
      vertex 2.42705 168.237 0
    endloop
  endfacet
  facet normal -0.587785 0.809017 0
    outer loop
      vertex 2.42705 168.237 6
      vertex 2.42705 168.237 0
      vertex 0.927051 167.147 6
    endloop
  endfacet
  facet normal -0.587785 0.809017 0
    outer loop
      vertex 0.927051 167.147 6
      vertex 2.42705 168.237 0
      vertex 0.927051 167.147 0
    endloop
  endfacet
  facet normal 0 1 0
    outer loop
      vertex 0.927051 167.147 6
      vertex 0.927051 167.147 0
      vertex -0.927051 167.147 6
    endloop
  endfacet
  facet normal 0 1 0
    outer loop
      vertex -0.927051 167.147 6
      vertex 0.927051 167.147 0
      vertex -0.927051 167.147 0
    endloop
  endfacet
  facet normal 0.587785 0.809017 0
    outer loop
      vertex -0.927051 167.147 6
      vertex -0.927051 167.147 0
      vertex -2.42705 168.237 6
    endloop
  endfacet
  facet normal 0.587785 0.809017 0
    outer loop
      vertex -2.42705 168.237 6
      vertex -0.927051 167.147 0
      vertex -2.42705 168.237 0
    endloop
  endfacet
  facet normal 0.994522 -0.104528 0
    outer loop
      vertex 0.983358 130.785 0
      vertex 0.983358 130.785 1.5
      vertex 0 121.429 1.5
    endloop
  endfacet
  facet normal 0.994522 -0.104528 0
    outer loop
      vertex 0 121.429 0
      vertex 0.983358 130.785 0
      vertex 0 121.429 1.5
    endloop
  endfacet
  facet normal 0.994522 0.104528 0
    outer loop
      vertex 0 121.429 1.5
      vertex 0.983358 112.073 1.5
      vertex 0.983358 112.073 0
    endloop
  endfacet
  facet normal 0.994522 0.104528 0
    outer loop
      vertex 0 121.429 0
      vertex 0 121.429 1.5
      vertex 0.983358 112.073 0
    endloop
  endfacet
  facet normal 0.951057 -0.309017 0
    outer loop
      vertex 3.89045 139.732 0
      vertex 3.89045 139.732 1.5
      vertex 0.983358 130.785 1.5
    endloop
  endfacet
  facet normal 0.951057 -0.309017 0
    outer loop
      vertex 0.983358 130.785 0
      vertex 3.89045 139.732 0
      vertex 0.983358 130.785 1.5
    endloop
  endfacet
  facet normal 0.866025 -0.5 0
    outer loop
      vertex 8.59424 147.879 0
      vertex 8.59424 147.879 1.5
      vertex 3.89045 139.732 1.5
    endloop
  endfacet
  facet normal 0.866025 -0.5 0
    outer loop
      vertex 3.89045 139.732 0
      vertex 8.59424 147.879 0
      vertex 3.89045 139.732 1.5
    endloop
  endfacet
  facet normal 0.743145 -0.669131 0
    outer loop
      vertex 14.8891 154.87 0
      vertex 14.8891 154.87 1.5
      vertex 8.59424 147.879 1.5
    endloop
  endfacet
  facet normal 0.743145 -0.669131 0
    outer loop
      vertex 8.59424 147.879 0
      vertex 14.8891 154.87 0
      vertex 8.59424 147.879 1.5
    endloop
  endfacet
  facet normal 0.587785 -0.809017 0
    outer loop
      vertex 22.5 160.4 0
      vertex 22.5 160.4 1.5
      vertex 14.8891 154.87 1.5
    endloop
  endfacet
  facet normal 0.587785 -0.809017 0
    outer loop
      vertex 14.8891 154.87 0
      vertex 22.5 160.4 0
      vertex 14.8891 154.87 1.5
    endloop
  endfacet
  facet normal 0.406737 -0.913545 0
    outer loop
      vertex 31.0942 164.226 0
      vertex 31.0942 164.226 1.5
      vertex 22.5 160.4 1.5
    endloop
  endfacet
  facet normal 0.406737 -0.913545 0
    outer loop
      vertex 22.5 160.4 0
      vertex 31.0942 164.226 0
      vertex 22.5 160.4 1.5
    endloop
  endfacet
  facet normal 0.207912 -0.978148 0
    outer loop
      vertex 40.2962 166.182 0
      vertex 40.2962 166.182 1.5
      vertex 31.0942 164.226 1.5
    endloop
  endfacet
  facet normal 0.207912 -0.978148 0
    outer loop
      vertex 31.0942 164.226 0
      vertex 40.2962 166.182 0
      vertex 31.0942 164.226 1.5
    endloop
  endfacet
  facet normal 0 -1 0
    outer loop
      vertex 49.7038 166.182 0
      vertex 49.7038 166.182 1.5
      vertex 40.2962 166.182 1.5
    endloop
  endfacet
  facet normal 0 -1 0
    outer loop
      vertex 40.2962 166.182 0
      vertex 49.7038 166.182 0
      vertex 40.2962 166.182 1.5
    endloop
  endfacet
  facet normal -0.207912 -0.978148 0
    outer loop
      vertex 58.9058 164.226 0
      vertex 58.9058 164.226 1.5
      vertex 49.7038 166.182 1.5
    endloop
  endfacet
  facet normal -0.207912 -0.978148 0
    outer loop
      vertex 49.7038 166.182 0
      vertex 58.9058 164.226 0
      vertex 49.7038 166.182 1.5
    endloop
  endfacet
  facet normal -0.406737 -0.913545 0
    outer loop
      vertex 67.5 160.4 0
      vertex 67.5 160.4 1.5
      vertex 58.9058 164.226 1.5
    endloop
  endfacet
  facet normal -0.406737 -0.913545 0
    outer loop
      vertex 58.9058 164.226 0
      vertex 67.5 160.4 0
      vertex 58.9058 164.226 1.5
    endloop
  endfacet
  facet normal -0.587785 -0.809017 0
    outer loop
      vertex 75.1109 154.87 0
      vertex 75.1109 154.87 1.5
      vertex 67.5 160.4 1.5
    endloop
  endfacet
  facet normal -0.587785 -0.809017 0
    outer loop
      vertex 67.5 160.4 0
      vertex 75.1109 154.87 0
      vertex 67.5 160.4 1.5
    endloop
  endfacet
  facet normal -0.743145 -0.669131 0
    outer loop
      vertex 81.4058 147.879 1.5
      vertex 75.1109 154.87 1.5
      vertex 81.4058 147.879 0
    endloop
  endfacet
  facet normal -0.743145 -0.669131 0
    outer loop
      vertex 81.4058 147.879 0
      vertex 75.1109 154.87 1.5
      vertex 75.1109 154.87 0
    endloop
  endfacet
  facet normal -0.866025 -0.5 0
    outer loop
      vertex 86.1095 139.732 1.5
      vertex 81.4058 147.879 1.5
      vertex 86.1095 139.732 0
    endloop
  endfacet
  facet normal -0.866025 -0.5 0
    outer loop
      vertex 86.1095 139.732 0
      vertex 81.4058 147.879 1.5
      vertex 81.4058 147.879 0
    endloop
  endfacet
  facet normal -0.951057 -0.309017 0
    outer loop
      vertex 89.0166 130.785 1.5
      vertex 86.1095 139.732 1.5
      vertex 89.0166 130.785 0
    endloop
  endfacet
  facet normal -0.951057 -0.309017 0
    outer loop
      vertex 89.0166 130.785 0
      vertex 86.1095 139.732 1.5
      vertex 86.1095 139.732 0
    endloop
  endfacet
  facet normal -0.994522 -0.104528 0
    outer loop
      vertex 90 121.429 1.5
      vertex 89.0166 130.785 1.5
      vertex 90 121.429 0
    endloop
  endfacet
  facet normal -0.994522 -0.104528 0
    outer loop
      vertex 90 121.429 0
      vertex 89.0166 130.785 1.5
      vertex 89.0166 130.785 0
    endloop
  endfacet
  facet normal -0.994522 0.104528 0
    outer loop
      vertex 90 121.429 1.5
      vertex 90 121.429 0
      vertex 89.0166 112.073 1.5
    endloop
  endfacet
  facet normal -0.994522 0.104528 0
    outer loop
      vertex 89.0166 112.073 1.5
      vertex 90 121.429 0
      vertex 89.0166 112.073 0
    endloop
  endfacet
  facet normal -0.951057 0.309017 0
    outer loop
      vertex 89.0166 112.073 1.5
      vertex 89.0166 112.073 0
      vertex 86.1095 103.125 1.5
    endloop
  endfacet
  facet normal -0.951057 0.309017 0
    outer loop
      vertex 86.1095 103.125 1.5
      vertex 89.0166 112.073 0
      vertex 86.1095 103.125 0
    endloop
  endfacet
  facet normal -0.866025 0.5 0
    outer loop
      vertex 86.1095 103.125 1.5
      vertex 86.1095 103.125 0
      vertex 81.4058 94.9782 1.5
    endloop
  endfacet
  facet normal -0.866025 0.5 0
    outer loop
      vertex 81.4058 94.9782 1.5
      vertex 86.1095 103.125 0
      vertex 81.4058 94.9782 0
    endloop
  endfacet
  facet normal -0.743145 0.669131 0
    outer loop
      vertex 81.4058 94.9782 1.5
      vertex 81.4058 94.9782 0
      vertex 75.1109 87.9871 1.5
    endloop
  endfacet
  facet normal -0.743145 0.669131 0
    outer loop
      vertex 75.1109 87.9871 1.5
      vertex 81.4058 94.9782 0
      vertex 75.1109 87.9871 0
    endloop
  endfacet
  facet normal -0.587785 0.809017 0
    outer loop
      vertex 75.1109 87.9871 1.5
      vertex 75.1109 87.9871 0
      vertex 67.5 82.4574 1.5
    endloop
  endfacet
  facet normal -0.587785 0.809017 0
    outer loop
      vertex 67.5 82.4574 1.5
      vertex 75.1109 87.9871 0
      vertex 67.5 82.4574 0
    endloop
  endfacet
  facet normal -0.406737 0.913545 0
    outer loop
      vertex 67.5 82.4574 1.5
      vertex 67.5 82.4574 0
      vertex 58.9058 78.631 1.5
    endloop
  endfacet
  facet normal -0.406737 0.913545 0
    outer loop
      vertex 58.9058 78.631 1.5
      vertex 67.5 82.4574 0
      vertex 58.9058 78.631 0
    endloop
  endfacet
  facet normal -0.207912 0.978148 0
    outer loop
      vertex 58.9058 78.631 1.5
      vertex 58.9058 78.631 0
      vertex 49.7038 76.6751 1.5
    endloop
  endfacet
  facet normal -0.207912 0.978148 0
    outer loop
      vertex 49.7038 76.6751 1.5
      vertex 58.9058 78.631 0
      vertex 49.7038 76.6751 0
    endloop
  endfacet
  facet normal 0 1 0
    outer loop
      vertex 49.7038 76.6751 1.5
      vertex 49.7038 76.6751 0
      vertex 40.2962 76.6751 1.5
    endloop
  endfacet
  facet normal 0 1 0
    outer loop
      vertex 40.2962 76.6751 1.5
      vertex 49.7038 76.6751 0
      vertex 40.2962 76.6751 0
    endloop
  endfacet
  facet normal 0.207912 0.978148 0
    outer loop
      vertex 40.2962 76.6751 1.5
      vertex 40.2962 76.6751 0
      vertex 31.0942 78.631 1.5
    endloop
  endfacet
  facet normal 0.207912 0.978148 0
    outer loop
      vertex 31.0942 78.631 1.5
      vertex 40.2962 76.6751 0
      vertex 31.0942 78.631 0
    endloop
  endfacet
  facet normal 0.406737 0.913545 0
    outer loop
      vertex 31.0942 78.631 1.5
      vertex 31.0942 78.631 0
      vertex 22.5 82.4574 1.5
    endloop
  endfacet
  facet normal 0.406737 0.913545 0
    outer loop
      vertex 22.5 82.4574 1.5
      vertex 31.0942 78.631 0
      vertex 22.5 82.4574 0
    endloop
  endfacet
  facet normal 0.587785 0.809017 0
    outer loop
      vertex 22.5 82.4574 1.5
      vertex 22.5 82.4574 0
      vertex 14.8891 87.9871 1.5
    endloop
  endfacet
  facet normal 0.587785 0.809017 0
    outer loop
      vertex 14.8891 87.9871 1.5
      vertex 22.5 82.4574 0
      vertex 14.8891 87.9871 0
    endloop
  endfacet
  facet normal 0.743145 0.669131 0
    outer loop
      vertex 8.59424 94.9782 1.5
      vertex 14.8891 87.9871 1.5
      vertex 14.8891 87.9871 0
    endloop
  endfacet
  facet normal 0.743145 0.669131 0
    outer loop
      vertex 8.59424 94.9782 0
      vertex 8.59424 94.9782 1.5
      vertex 14.8891 87.9871 0
    endloop
  endfacet
  facet normal 0.866025 0.5 0
    outer loop
      vertex 3.89045 103.125 1.5
      vertex 8.59424 94.9782 1.5
      vertex 8.59424 94.9782 0
    endloop
  endfacet
  facet normal 0.866025 0.5 0
    outer loop
      vertex 3.89045 103.125 0
      vertex 3.89045 103.125 1.5
      vertex 8.59424 94.9782 0
    endloop
  endfacet
  facet normal 0.951057 0.309017 0
    outer loop
      vertex 0.983358 112.073 1.5
      vertex 3.89045 103.125 1.5
      vertex 3.89045 103.125 0
    endloop
  endfacet
  facet normal 0.951057 0.309017 0
    outer loop
      vertex 0.983358 112.073 0
      vertex 0.983358 112.073 1.5
      vertex 3.89045 103.125 0
    endloop
  endfacet
  facet normal 1 0 0
    outer loop
      vertex 10 42 0
      vertex 10 42 6
      vertex 10 17 6
    endloop
  endfacet
  facet normal 1 0 0
    outer loop
      vertex 10 17 0
      vertex 10 42 0
      vertex 10 17 6
    endloop
  endfacet
  facet normal 0 -1 0
    outer loop
      vertex 80 42 0
      vertex 80 42 6
      vertex 10 42 6
    endloop
  endfacet
  facet normal 0 -1 0
    outer loop
      vertex 10 42 0
      vertex 80 42 0
      vertex 10 42 6
    endloop
  endfacet
  facet normal -1 0 0
    outer loop
      vertex 80 42 6
      vertex 80 42 0
      vertex 80 17 6
    endloop
  endfacet
  facet normal -1 0 0
    outer loop
      vertex 80 17 6
      vertex 80 42 0
      vertex 80 17 0
    endloop
  endfacet
  facet normal 0 1 0
    outer loop
      vertex 80 17 6
      vertex 80 17 0
      vertex 10 17 6
    endloop
  endfacet
  facet normal 0 1 0
    outer loop
      vertex 10 17 6
      vertex 80 17 0
      vertex 10 17 0
    endloop
  endfacet
  facet normal 0.951057 -0.309017 0
    outer loop
      vertex 87.5729 1.76336 0
      vertex 87.5729 1.76336 6
      vertex 87 0 6
    endloop
  endfacet
  facet normal 0.951057 -0.309017 0
    outer loop
      vertex 87 0 0
      vertex 87.5729 1.76336 0
      vertex 87 0 6
    endloop
  endfacet
  facet normal 0.951057 0.309017 0
    outer loop
      vertex 87 0 6
      vertex 87.5729 -1.76336 6
      vertex 87.5729 -1.76336 0
    endloop
  endfacet
  facet normal 0.951057 0.309017 0
    outer loop
      vertex 87 0 0
      vertex 87 0 6
      vertex 87.5729 -1.76336 0
    endloop
  endfacet
  facet normal 0.587785 -0.809017 0
    outer loop
      vertex 89.0729 2.85317 0
      vertex 89.0729 2.85317 6
      vertex 87.5729 1.76336 6
    endloop
  endfacet
  facet normal 0.587785 -0.809017 0
    outer loop
      vertex 87.5729 1.76336 0
      vertex 89.0729 2.85317 0
      vertex 87.5729 1.76336 6
    endloop
  endfacet
  facet normal 0 -1 0
    outer loop
      vertex 90.9271 2.85317 0
      vertex 90.9271 2.85317 6
      vertex 89.0729 2.85317 6
    endloop
  endfacet
  facet normal 0 -1 0
    outer loop
      vertex 89.0729 2.85317 0
      vertex 90.9271 2.85317 0
      vertex 89.0729 2.85317 6
    endloop
  endfacet
  facet normal -0.587785 -0.809017 0
    outer loop
      vertex 92.4271 1.76336 0
      vertex 92.4271 1.76336 6
      vertex 90.9271 2.85317 6
    endloop
  endfacet
  facet normal -0.587785 -0.809017 0
    outer loop
      vertex 90.9271 2.85317 0
      vertex 92.4271 1.76336 0
      vertex 90.9271 2.85317 6
    endloop
  endfacet
  facet normal -0.951057 -0.309017 0
    outer loop
      vertex 93 0 6
      vertex 92.4271 1.76336 6
      vertex 93 0 0
    endloop
  endfacet
  facet normal -0.951057 -0.309017 0
    outer loop
      vertex 93 0 0
      vertex 92.4271 1.76336 6
      vertex 92.4271 1.76336 0
    endloop
  endfacet
  facet normal -0.951057 0.309017 0
    outer loop
      vertex 93 0 6
      vertex 93 0 0
      vertex 92.4271 -1.76336 6
    endloop
  endfacet
  facet normal -0.951057 0.309017 0
    outer loop
      vertex 92.4271 -1.76336 6
      vertex 93 0 0
      vertex 92.4271 -1.76336 0
    endloop
  endfacet
  facet normal -0.587785 0.809017 0
    outer loop
      vertex 92.4271 -1.76336 6
      vertex 92.4271 -1.76336 0
      vertex 90.9271 -2.85317 6
    endloop
  endfacet
  facet normal -0.587785 0.809017 0
    outer loop
      vertex 90.9271 -2.85317 6
      vertex 92.4271 -1.76336 0
      vertex 90.9271 -2.85317 0
    endloop
  endfacet
  facet normal 0 1 0
    outer loop
      vertex 90.9271 -2.85317 6
      vertex 90.9271 -2.85317 0
      vertex 89.0729 -2.85317 6
    endloop
  endfacet
  facet normal 0 1 0
    outer loop
      vertex 89.0729 -2.85317 6
      vertex 90.9271 -2.85317 0
      vertex 89.0729 -2.85317 0
    endloop
  endfacet
  facet normal 0.587785 0.809017 0
    outer loop
      vertex 89.0729 -2.85317 6
      vertex 89.0729 -2.85317 0
      vertex 87.5729 -1.76336 6
    endloop
  endfacet
  facet normal 0.587785 0.809017 0
    outer loop
      vertex 87.5729 -1.76336 6
      vertex 89.0729 -2.85317 0
      vertex 87.5729 -1.76336 0
    endloop
  endfacet
  facet normal 0.951057 -0.309017 0
    outer loop
      vertex 87.5729 171.763 0
      vertex 87.5729 171.763 6
      vertex 87 170 6
    endloop
  endfacet
  facet normal 0.951057 -0.309017 0
    outer loop
      vertex 87 170 0
      vertex 87.5729 171.763 0
      vertex 87 170 6
    endloop
  endfacet
  facet normal 0.951057 0.309017 0
    outer loop
      vertex 87 170 6
      vertex 87.5729 168.237 6
      vertex 87.5729 168.237 0
    endloop
  endfacet
  facet normal 0.951057 0.309017 0
    outer loop
      vertex 87 170 0
      vertex 87 170 6
      vertex 87.5729 168.237 0
    endloop
  endfacet
  facet normal 0.587785 -0.809017 0
    outer loop
      vertex 89.0729 172.853 0
      vertex 89.0729 172.853 6
      vertex 87.5729 171.763 6
    endloop
  endfacet
  facet normal 0.587785 -0.809017 0
    outer loop
      vertex 87.5729 171.763 0
      vertex 89.0729 172.853 0
      vertex 87.5729 171.763 6
    endloop
  endfacet
  facet normal 0 -1 0
    outer loop
      vertex 90.9271 172.853 0
      vertex 90.9271 172.853 6
      vertex 89.0729 172.853 6
    endloop
  endfacet
  facet normal 0 -1 0
    outer loop
      vertex 89.0729 172.853 0
      vertex 90.9271 172.853 0
      vertex 89.0729 172.853 6
    endloop
  endfacet
  facet normal -0.587785 -0.809017 0
    outer loop
      vertex 92.4271 171.763 0
      vertex 92.4271 171.763 6
      vertex 90.9271 172.853 6
    endloop
  endfacet
  facet normal -0.587785 -0.809017 0
    outer loop
      vertex 90.9271 172.853 0
      vertex 92.4271 171.763 0
      vertex 90.9271 172.853 6
    endloop
  endfacet
  facet normal -0.951057 -0.309017 0
    outer loop
      vertex 93 170 6
      vertex 92.4271 171.763 6
      vertex 93 170 0
    endloop
  endfacet
  facet normal -0.951057 -0.309017 0
    outer loop
      vertex 93 170 0
      vertex 92.4271 171.763 6
      vertex 92.4271 171.763 0
    endloop
  endfacet
  facet normal -0.951057 0.309017 0
    outer loop
      vertex 93 170 6
      vertex 93 170 0
      vertex 92.4271 168.237 6
    endloop
  endfacet
  facet normal -0.951057 0.309017 0
    outer loop
      vertex 92.4271 168.237 6
      vertex 93 170 0
      vertex 92.4271 168.237 0
    endloop
  endfacet
  facet normal -0.587785 0.809017 0
    outer loop
      vertex 92.4271 168.237 6
      vertex 92.4271 168.237 0
      vertex 90.9271 167.147 6
    endloop
  endfacet
  facet normal -0.587785 0.809017 0
    outer loop
      vertex 90.9271 167.147 6
      vertex 92.4271 168.237 0
      vertex 90.9271 167.147 0
    endloop
  endfacet
  facet normal 0 1 0
    outer loop
      vertex 90.9271 167.147 6
      vertex 90.9271 167.147 0
      vertex 89.0729 167.147 6
    endloop
  endfacet
  facet normal 0 1 0
    outer loop
      vertex 89.0729 167.147 6
      vertex 90.9271 167.147 0
      vertex 89.0729 167.147 0
    endloop
  endfacet
  facet normal 0.587785 0.809017 0
    outer loop
      vertex 89.0729 167.147 6
      vertex 89.0729 167.147 0
      vertex 87.5729 168.237 6
    endloop
  endfacet
  facet normal 0.587785 0.809017 0
    outer loop
      vertex 87.5729 168.237 6
      vertex 89.0729 167.147 0
      vertex 87.5729 168.237 0
    endloop
  endfacet
  facet normal 0 0 -1
    outer loop
      vertex 3.89045 139.732 1.5
      vertex 8.59424 147.879 1.5
      vertex 0.983358 130.785 1.5
    endloop
  endfacet
  facet normal 0 0 -1
    outer loop
      vertex 0.983358 130.785 1.5
      vertex 8.59424 147.879 1.5
      vertex 14.8891 154.87 1.5
    endloop
  endfacet
  facet normal 0 0 -1
    outer loop
      vertex 0.983358 130.785 1.5
      vertex 14.8891 154.87 1.5
      vertex 22.5 160.4 1.5
    endloop
  endfacet
  facet normal 0 0 -1
    outer loop
      vertex 0.983358 130.785 1.5
      vertex 22.5 160.4 1.5
      vertex 31.0942 164.226 1.5
    endloop
  endfacet
  facet normal 0 0 -1
    outer loop
      vertex 0.983358 130.785 1.5
      vertex 31.0942 164.226 1.5
      vertex 40.2962 166.182 1.5
    endloop
  endfacet
  facet normal 0 0 -1
    outer loop
      vertex 15 141.073 1.5
      vertex 40.2962 166.182 1.5
      vertex 49.7038 166.182 1.5
    endloop
  endfacet
  facet normal 0 0 -1
    outer loop
      vertex 40.2962 143.682 1.5
      vertex 67.5 160.4 1.5
      vertex 75.1109 154.87 1.5
    endloop
  endfacet
  facet normal 0 0 -1
    outer loop
      vertex 49.7038 143.682 1.5
      vertex 75.1109 154.87 1.5
      vertex 81.4058 147.879 1.5
    endloop
  endfacet
  facet normal 0 0 -1
    outer loop
      vertex 75 141.073 1.5
      vertex 81.4058 147.879 1.5
      vertex 86.1095 139.732 1.5
    endloop
  endfacet
  facet normal 0 0 -1
    outer loop
      vertex 77.8876 136.071 1.5
      vertex 86.1095 139.732 1.5
      vertex 89.0166 130.785 1.5
    endloop
  endfacet
  facet normal 0 0 -1
    outer loop
      vertex 80.2133 128.913 1.5
      vertex 89.0166 130.785 1.5
      vertex 90 121.429 1.5
    endloop
  endfacet
  facet normal 0 0 -1
    outer loop
      vertex 81 121.429 1.5
      vertex 90 121.429 1.5
      vertex 89.0166 112.073 1.5
    endloop
  endfacet
  facet normal 0 0 -1
    outer loop
      vertex 77.8876 106.786 1.5
      vertex 89.0166 112.073 1.5
      vertex 86.1095 103.125 1.5
    endloop
  endfacet
  facet normal 0 0 -1
    outer loop
      vertex 74.1246 100.268 1.5
      vertex 86.1095 103.125 1.5
      vertex 81.4058 94.9782 1.5
    endloop
  endfacet
  facet normal 0 0 -1
    outer loop
      vertex 69.0887 94.6754 1.5
      vertex 81.4058 94.9782 1.5
      vertex 75.1109 87.9871 1.5
    endloop
  endfacet
  facet normal 0 0 -1
    outer loop
      vertex 63 90.2517 1.5
      vertex 75.1109 87.9871 1.5
      vertex 67.5 82.4574 1.5
    endloop
  endfacet
  facet normal 0 0 -1
    outer loop
      vertex 56.1246 87.1905 1.5
      vertex 67.5 82.4574 1.5
      vertex 58.9058 78.631 1.5
    endloop
  endfacet
  facet normal 0 0 -1
    outer loop
      vertex 48.763 85.6258 1.5
      vertex 58.9058 78.631 1.5
      vertex 49.7038 76.6751 1.5
    endloop
  endfacet
  facet normal 0 0 -1
    outer loop
      vertex 33.8754 87.1905 1.5
      vertex 49.7038 76.6751 1.5
      vertex 40.2962 76.6751 1.5
    endloop
  endfacet
  facet normal 0 0 -1
    outer loop
      vertex 27 90.2517 1.5
      vertex 40.2962 76.6751 1.5
      vertex 31.0942 78.631 1.5
    endloop
  endfacet
  facet normal 0 0 -1
    outer loop
      vertex 15.8754 100.268 1.5
      vertex 31.0942 78.631 1.5
      vertex 22.5 82.4574 1.5
    endloop
  endfacet
  facet normal 0 0 -1
    outer loop
      vertex 0.983358 130.785 1.5
      vertex 22.5 82.4574 1.5
      vertex 14.8891 87.9871 1.5
    endloop
  endfacet
  facet normal 0 0 -1
    outer loop
      vertex 0.983358 130.785 1.5
      vertex 14.8891 87.9871 1.5
      vertex 8.59424 94.9782 1.5
    endloop
  endfacet
  facet normal 0 0 -1
    outer loop
      vertex 0.983358 130.785 1.5
      vertex 8.59424 94.9782 1.5
      vertex 3.89045 103.125 1.5
    endloop
  endfacet
  facet normal 0 0 -1
    outer loop
      vertex 0.983358 130.785 1.5
      vertex 3.89045 103.125 1.5
      vertex 0.983358 112.073 1.5
    endloop
  endfacet
  facet normal 0 0 -1
    outer loop
      vertex 0.983358 130.785 1.5
      vertex 0.983358 112.073 1.5
      vertex 0 121.429 1.5
    endloop
  endfacet
  facet normal 0 0 -1
    outer loop
      vertex 15.8754 100.268 1.5
      vertex 22.5 82.4574 1.5
      vertex 12.1124 106.786 1.5
    endloop
  endfacet
  facet normal 0 0 -1
    outer loop
      vertex 0.983358 130.785 1.5
      vertex 9.78669 113.944 1.5
      vertex 12.1124 106.786 1.5
    endloop
  endfacet
  facet normal 0 0 -1
    outer loop
      vertex 0.983358 130.785 1.5
      vertex 12.1124 106.786 1.5
      vertex 22.5 82.4574 1.5
    endloop
  endfacet
  facet normal 0 0 -1
    outer loop
      vertex 20.9113 94.6754 1.5
      vertex 31.0942 78.631 1.5
      vertex 15.8754 100.268 1.5
    endloop
  endfacet
  facet normal 0 0 -1
    outer loop
      vertex 27 90.2517 1.5
      vertex 31.0942 78.631 1.5
      vertex 20.9113 94.6754 1.5
    endloop
  endfacet
  facet normal 0 0 -1
    outer loop
      vertex 41.237 85.6258 1.5
      vertex 49.7038 76.6751 1.5
      vertex 33.8754 87.1905 1.5
    endloop
  endfacet
  facet normal 0 0 -1
    outer loop
      vertex 56.1246 87.1905 1.5
      vertex 58.9058 78.631 1.5
      vertex 48.763 85.6258 1.5
    endloop
  endfacet
  facet normal 0 0 -1
    outer loop
      vertex 63 90.2517 1.5
      vertex 67.5 82.4574 1.5
      vertex 56.1246 87.1905 1.5
    endloop
  endfacet
  facet normal 0 0 -1
    outer loop
      vertex 69.0887 94.6754 1.5
      vertex 75.1109 87.9871 1.5
      vertex 63 90.2517 1.5
    endloop
  endfacet
  facet normal 0 0 -1
    outer loop
      vertex 74.1246 100.268 1.5
      vertex 81.4058 94.9782 1.5
      vertex 69.0887 94.6754 1.5
    endloop
  endfacet
  facet normal 0 0 -1
    outer loop
      vertex 77.8876 106.786 1.5
      vertex 86.1095 103.125 1.5
      vertex 74.1246 100.268 1.5
    endloop
  endfacet
  facet normal 0 0 -1
    outer loop
      vertex 80.2133 113.944 1.5
      vertex 89.0166 112.073 1.5
      vertex 77.8876 106.786 1.5
    endloop
  endfacet
  facet normal 0 0 -1
    outer loop
      vertex 81 121.429 1.5
      vertex 89.0166 112.073 1.5
      vertex 80.2133 113.944 1.5
    endloop
  endfacet
  facet normal 0 0 -1
    outer loop
      vertex 80.2133 128.913 1.5
      vertex 90 121.429 1.5
      vertex 81 121.429 1.5
    endloop
  endfacet
  facet normal 0 0 -1
    outer loop
      vertex 77.8876 136.071 1.5
      vertex 89.0166 130.785 1.5
      vertex 80.2133 128.913 1.5
    endloop
  endfacet
  facet normal 0 0 -1
    outer loop
      vertex 75 141.073 1.5
      vertex 86.1095 139.732 1.5
      vertex 77.8876 136.071 1.5
    endloop
  endfacet
  facet normal 0 0 -1
    outer loop
      vertex 58.9058 141.726 1.5
      vertex 81.4058 147.879 1.5
      vertex 75 141.073 1.5
    endloop
  endfacet
  facet normal 0 0 -1
    outer loop
      vertex 58.9058 141.726 1.5
      vertex 75 141.073 1.5
      vertex 67.5 137.9 1.5
    endloop
  endfacet
  facet normal 0 0 -1
    outer loop
      vertex 15 141.073 1.5
      vertex 49.7038 166.182 1.5
      vertex 58.9058 164.226 1.5
    endloop
  endfacet
  facet normal 0 0 -1
    outer loop
      vertex 75 132.451 1.5
      vertex 67.5 137.9 1.5
      vertex 75 141.073 1.5
    endloop
  endfacet
  facet normal 0 0 -1
    outer loop
      vertex 15 141.073 1.5
      vertex 67.5 160.4 1.5
      vertex 31.0942 141.726 1.5
    endloop
  endfacet
  facet normal 0 0 -1
    outer loop
      vertex 49.7038 143.682 1.5
      vertex 81.4058 147.879 1.5
      vertex 58.9058 141.726 1.5
    endloop
  endfacet
  facet normal 0 0 -1
    outer loop
      vertex 40.2962 143.682 1.5
      vertex 75.1109 154.87 1.5
      vertex 49.7038 143.682 1.5
    endloop
  endfacet
  facet normal 0 0 -1
    outer loop
      vertex 31.0942 141.726 1.5
      vertex 67.5 160.4 1.5
      vertex 40.2962 143.682 1.5
    endloop
  endfacet
  facet normal 0 0 -1
    outer loop
      vertex 15 141.073 1.5
      vertex 31.0942 141.726 1.5
      vertex 22.5 137.9 1.5
    endloop
  endfacet
  facet normal 0 0 -1
    outer loop
      vertex 15 141.073 1.5
      vertex 58.9058 164.226 1.5
      vertex 67.5 160.4 1.5
    endloop
  endfacet
  facet normal 0 0 -1
    outer loop
      vertex 0.983358 130.785 1.5
      vertex 40.2962 166.182 1.5
      vertex 15 141.073 1.5
    endloop
  endfacet
  facet normal 0 0 -1
    outer loop
      vertex 9.78669 128.913 1.5
      vertex 0.983358 130.785 1.5
      vertex 12.1124 136.071 1.5
    endloop
  endfacet
  facet normal 0 0 -1
    outer loop
      vertex 9 121.429 1.5
      vertex 0.983358 130.785 1.5
      vertex 9.78669 128.913 1.5
    endloop
  endfacet
  facet normal 0 0 -1
    outer loop
      vertex 15 141.073 1.5
      vertex 22.5 137.9 1.5
      vertex 15 132.451 1.5
    endloop
  endfacet
  facet normal 0 0 -1
    outer loop
      vertex 9.78669 113.944 1.5
      vertex 0.983358 130.785 1.5
      vertex 9 121.429 1.5
    endloop
  endfacet
  facet normal 0 0 -1
    outer loop
      vertex 48.763 85.6258 1.5
      vertex 49.7038 76.6751 1.5
      vertex 41.237 85.6258 1.5
    endloop
  endfacet
  facet normal 0 0 -1
    outer loop
      vertex 33.8754 87.1905 1.5
      vertex 40.2962 76.6751 1.5
      vertex 27 90.2517 1.5
    endloop
  endfacet
  facet normal 0 0 -1
    outer loop
      vertex 12.1124 136.071 1.5
      vertex 0.983358 130.785 1.5
      vertex 15 141.073 1.5
    endloop
  endfacet
  facet normal -0.994522 -0.104528 0
    outer loop
      vertex 9 121.429 0
      vertex 9.78669 113.944 0
      vertex 9 121.429 1.5
    endloop
  endfacet
  facet normal -0.994522 -0.104528 0
    outer loop
      vertex 9 121.429 1.5
      vertex 9.78669 113.944 0
      vertex 9.78669 113.944 1.5
    endloop
  endfacet
  facet normal -0.951056 -0.309017 0
    outer loop
      vertex 9.78669 113.944 0
      vertex 12.1124 106.786 0
      vertex 9.78669 113.944 1.5
    endloop
  endfacet
  facet normal -0.951056 -0.309017 0
    outer loop
      vertex 9.78669 113.944 1.5
      vertex 12.1124 106.786 0
      vertex 12.1124 106.786 1.5
    endloop
  endfacet
  facet normal -0.994522 0.104528 0
    outer loop
      vertex 9 121.429 0
      vertex 9 121.429 1.5
      vertex 9.78669 128.913 0
    endloop
  endfacet
  facet normal -0.994522 0.104528 0
    outer loop
      vertex 9.78669 128.913 0
      vertex 9 121.429 1.5
      vertex 9.78669 128.913 1.5
    endloop
  endfacet
  facet normal -0.951056 0.309017 0
    outer loop
      vertex 9.78669 128.913 0
      vertex 9.78669 128.913 1.5
      vertex 12.1124 136.071 0
    endloop
  endfacet
  facet normal -0.951056 0.309017 0
    outer loop
      vertex 12.1124 136.071 0
      vertex 9.78669 128.913 1.5
      vertex 12.1124 136.071 1.5
    endloop
  endfacet
  facet normal -0.866025 0.5 0
    outer loop
      vertex 12.1124 136.071 0
      vertex 12.1124 136.071 1.5
      vertex 15 141.073 0
    endloop
  endfacet
  facet normal -0.866025 0.5 0
    outer loop
      vertex 15 141.073 0
      vertex 12.1124 136.071 1.5
      vertex 15 141.073 1.5
    endloop
  endfacet
  facet normal 1 0 0
    outer loop
      vertex 15 141.073 0
      vertex 15 141.073 1.5
      vertex 15 132.451 1.5
    endloop
  endfacet
  facet normal 1 0 0
    outer loop
      vertex 15 132.451 0
      vertex 15 141.073 0
      vertex 15 132.451 1.5
    endloop
  endfacet
  facet normal -0.587785 0.809017 0
    outer loop
      vertex 15 132.451 0
      vertex 15 132.451 1.5
      vertex 22.5 137.9 0
    endloop
  endfacet
  facet normal -0.587785 0.809017 0
    outer loop
      vertex 22.5 137.9 0
      vertex 15 132.451 1.5
      vertex 22.5 137.9 1.5
    endloop
  endfacet
  facet normal -0.406737 0.913545 0
    outer loop
      vertex 22.5 137.9 0
      vertex 22.5 137.9 1.5
      vertex 31.0942 141.726 0
    endloop
  endfacet
  facet normal -0.406737 0.913545 0
    outer loop
      vertex 31.0942 141.726 0
      vertex 22.5 137.9 1.5
      vertex 31.0942 141.726 1.5
    endloop
  endfacet
  facet normal -0.207912 0.978148 0
    outer loop
      vertex 31.0942 141.726 0
      vertex 31.0942 141.726 1.5
      vertex 40.2962 143.682 0
    endloop
  endfacet
  facet normal -0.207912 0.978148 0
    outer loop
      vertex 40.2962 143.682 0
      vertex 31.0942 141.726 1.5
      vertex 40.2962 143.682 1.5
    endloop
  endfacet
  facet normal 0 1 0
    outer loop
      vertex 40.2962 143.682 0
      vertex 40.2962 143.682 1.5
      vertex 49.7038 143.682 0
    endloop
  endfacet
  facet normal 0 1 0
    outer loop
      vertex 49.7038 143.682 0
      vertex 40.2962 143.682 1.5
      vertex 49.7038 143.682 1.5
    endloop
  endfacet
  facet normal 0.207912 0.978148 0
    outer loop
      vertex 49.7038 143.682 0
      vertex 49.7038 143.682 1.5
      vertex 58.9058 141.726 0
    endloop
  endfacet
  facet normal 0.207912 0.978148 0
    outer loop
      vertex 58.9058 141.726 0
      vertex 49.7038 143.682 1.5
      vertex 58.9058 141.726 1.5
    endloop
  endfacet
  facet normal 0.406737 0.913545 0
    outer loop
      vertex 58.9058 141.726 0
      vertex 58.9058 141.726 1.5
      vertex 67.5 137.9 0
    endloop
  endfacet
  facet normal 0.406737 0.913545 0
    outer loop
      vertex 67.5 137.9 0
      vertex 58.9058 141.726 1.5
      vertex 67.5 137.9 1.5
    endloop
  endfacet
  facet normal 0.587785 0.809017 0
    outer loop
      vertex 67.5 137.9 0
      vertex 67.5 137.9 1.5
      vertex 75 132.451 0
    endloop
  endfacet
  facet normal 0.587785 0.809017 0
    outer loop
      vertex 75 132.451 0
      vertex 67.5 137.9 1.5
      vertex 75 132.451 1.5
    endloop
  endfacet
  facet normal -1 0 0
    outer loop
      vertex 75 141.073 1.5
      vertex 75 141.073 0
      vertex 75 132.451 1.5
    endloop
  endfacet
  facet normal -1 0 0
    outer loop
      vertex 75 132.451 1.5
      vertex 75 141.073 0
      vertex 75 132.451 0
    endloop
  endfacet
  facet normal 0.866025 0.5 0
    outer loop
      vertex 77.8876 136.071 0
      vertex 75 141.073 0
      vertex 75 141.073 1.5
    endloop
  endfacet
  facet normal 0.866025 0.5 0
    outer loop
      vertex 77.8876 136.071 1.5
      vertex 77.8876 136.071 0
      vertex 75 141.073 1.5
    endloop
  endfacet
  facet normal 0.951056 0.309017 0
    outer loop
      vertex 80.2133 128.913 0
      vertex 77.8876 136.071 0
      vertex 77.8876 136.071 1.5
    endloop
  endfacet
  facet normal 0.951056 0.309017 0
    outer loop
      vertex 80.2133 128.913 1.5
      vertex 80.2133 128.913 0
      vertex 77.8876 136.071 1.5
    endloop
  endfacet
  facet normal 0.994522 0.104528 0
    outer loop
      vertex 81 121.429 0
      vertex 80.2133 128.913 0
      vertex 80.2133 128.913 1.5
    endloop
  endfacet
  facet normal 0.994522 0.104528 0
    outer loop
      vertex 81 121.429 1.5
      vertex 81 121.429 0
      vertex 80.2133 128.913 1.5
    endloop
  endfacet
  facet normal 0.994522 -0.104528 0
    outer loop
      vertex 80.2133 113.944 1.5
      vertex 80.2133 113.944 0
      vertex 81 121.429 0
    endloop
  endfacet
  facet normal 0.994522 -0.104528 0
    outer loop
      vertex 81 121.429 1.5
      vertex 80.2133 113.944 1.5
      vertex 81 121.429 0
    endloop
  endfacet
  facet normal 0.951056 -0.309017 0
    outer loop
      vertex 77.8876 106.786 1.5
      vertex 77.8876 106.786 0
      vertex 80.2133 113.944 0
    endloop
  endfacet
  facet normal 0.951056 -0.309017 0
    outer loop
      vertex 80.2133 113.944 1.5
      vertex 77.8876 106.786 1.5
      vertex 80.2133 113.944 0
    endloop
  endfacet
  facet normal 0.866025 -0.5 0
    outer loop
      vertex 74.1246 100.268 1.5
      vertex 74.1246 100.268 0
      vertex 77.8876 106.786 0
    endloop
  endfacet
  facet normal 0.866025 -0.5 0
    outer loop
      vertex 77.8876 106.786 1.5
      vertex 74.1246 100.268 1.5
      vertex 77.8876 106.786 0
    endloop
  endfacet
  facet normal 0.743145 -0.669131 0
    outer loop
      vertex 69.0887 94.6754 1.5
      vertex 69.0887 94.6754 0
      vertex 74.1246 100.268 0
    endloop
  endfacet
  facet normal 0.743145 -0.669131 0
    outer loop
      vertex 74.1246 100.268 1.5
      vertex 69.0887 94.6754 1.5
      vertex 74.1246 100.268 0
    endloop
  endfacet
  facet normal 0.587785 -0.809017 0
    outer loop
      vertex 63 90.2517 1.5
      vertex 63 90.2517 0
      vertex 69.0887 94.6754 0
    endloop
  endfacet
  facet normal 0.587785 -0.809017 0
    outer loop
      vertex 69.0887 94.6754 1.5
      vertex 63 90.2517 1.5
      vertex 69.0887 94.6754 0
    endloop
  endfacet
  facet normal 0.406737 -0.913545 0
    outer loop
      vertex 56.1246 87.1905 1.5
      vertex 56.1246 87.1905 0
      vertex 63 90.2517 0
    endloop
  endfacet
  facet normal 0.406737 -0.913545 0
    outer loop
      vertex 63 90.2517 1.5
      vertex 56.1246 87.1905 1.5
      vertex 63 90.2517 0
    endloop
  endfacet
  facet normal 0.207912 -0.978148 0
    outer loop
      vertex 48.763 85.6258 1.5
      vertex 48.763 85.6258 0
      vertex 56.1246 87.1905 0
    endloop
  endfacet
  facet normal 0.207912 -0.978148 0
    outer loop
      vertex 56.1246 87.1905 1.5
      vertex 48.763 85.6258 1.5
      vertex 56.1246 87.1905 0
    endloop
  endfacet
  facet normal 0 -1 0
    outer loop
      vertex 41.237 85.6258 1.5
      vertex 41.237 85.6258 0
      vertex 48.763 85.6258 0
    endloop
  endfacet
  facet normal 0 -1 0
    outer loop
      vertex 48.763 85.6258 1.5
      vertex 41.237 85.6258 1.5
      vertex 48.763 85.6258 0
    endloop
  endfacet
  facet normal -0.207912 -0.978148 0
    outer loop
      vertex 33.8754 87.1905 1.5
      vertex 33.8754 87.1905 0
      vertex 41.237 85.6258 0
    endloop
  endfacet
  facet normal -0.207912 -0.978148 0
    outer loop
      vertex 41.237 85.6258 1.5
      vertex 33.8754 87.1905 1.5
      vertex 41.237 85.6258 0
    endloop
  endfacet
  facet normal -0.406737 -0.913545 0
    outer loop
      vertex 27 90.2517 1.5
      vertex 27 90.2517 0
      vertex 33.8754 87.1905 0
    endloop
  endfacet
  facet normal -0.406737 -0.913545 0
    outer loop
      vertex 33.8754 87.1905 1.5
      vertex 27 90.2517 1.5
      vertex 33.8754 87.1905 0
    endloop
  endfacet
  facet normal -0.587785 -0.809017 0
    outer loop
      vertex 20.9113 94.6754 1.5
      vertex 20.9113 94.6754 0
      vertex 27 90.2517 0
    endloop
  endfacet
  facet normal -0.587785 -0.809017 0
    outer loop
      vertex 27 90.2517 1.5
      vertex 20.9113 94.6754 1.5
      vertex 27 90.2517 0
    endloop
  endfacet
  facet normal -0.743145 -0.669131 0
    outer loop
      vertex 15.8754 100.268 0
      vertex 20.9113 94.6754 0
      vertex 15.8754 100.268 1.5
    endloop
  endfacet
  facet normal -0.743145 -0.669131 0
    outer loop
      vertex 15.8754 100.268 1.5
      vertex 20.9113 94.6754 0
      vertex 20.9113 94.6754 1.5
    endloop
  endfacet
  facet normal -0.866025 -0.5 0
    outer loop
      vertex 12.1124 106.786 0
      vertex 15.8754 100.268 0
      vertex 12.1124 106.786 1.5
    endloop
  endfacet
  facet normal -0.866025 -0.5 0
    outer loop
      vertex 12.1124 106.786 1.5
      vertex 15.8754 100.268 0
      vertex 15.8754 100.268 1.5
    endloop
  endfacet
  facet normal 0 0 -1
    outer loop
      vertex 9 121.429 0
      vertex 9.78669 128.913 0
      vertex 9.78669 113.944 0
    endloop
  endfacet
  facet normal 0 0 -1
    outer loop
      vertex 9.78669 113.944 0
      vertex 9.78669 128.913 0
      vertex 12.1124 136.071 0
    endloop
  endfacet
  facet normal 0 0 -1
    outer loop
      vertex 9.78669 113.944 0
      vertex 12.1124 136.071 0
      vertex 15 141.073 0
    endloop
  endfacet
  facet normal 0 0 -1
    outer loop
      vertex 9.78669 113.944 0
      vertex 15 141.073 0
      vertex 15 132.451 0
    endloop
  endfacet
  facet normal 0 0 -1
    outer loop
      vertex 9.78669 113.944 0
      vertex 15 132.451 0
      vertex 22.5 137.9 0
    endloop
  endfacet
  facet normal 0 0 -1
    outer loop
      vertex 9.78669 113.944 0
      vertex 22.5 137.9 0
      vertex 31.0942 141.726 0
    endloop
  endfacet
  facet normal 0 0 -1
    outer loop
      vertex 9.78669 113.944 0
      vertex 31.0942 141.726 0
      vertex 40.2962 143.682 0
    endloop
  endfacet
  facet normal 0 0 -1
    outer loop
      vertex 9.78669 113.944 0
      vertex 40.2962 143.682 0
      vertex 49.7038 143.682 0
    endloop
  endfacet
  facet normal 0 0 -1
    outer loop
      vertex 9.78669 113.944 0
      vertex 49.7038 143.682 0
      vertex 58.9058 141.726 0
    endloop
  endfacet
  facet normal 0 0 -1
    outer loop
      vertex 9.78669 113.944 0
      vertex 58.9058 141.726 0
      vertex 67.5 137.9 0
    endloop
  endfacet
  facet normal 0 0 -1
    outer loop
      vertex 9.78669 113.944 0
      vertex 67.5 137.9 0
      vertex 75 132.451 0
    endloop
  endfacet
  facet normal 0 0 -1
    outer loop
      vertex 75 132.451 0
      vertex 75 141.073 0
      vertex 77.8876 136.071 0
    endloop
  endfacet
  facet normal 0 0 -1
    outer loop
      vertex 75 132.451 0
      vertex 77.8876 136.071 0
      vertex 80.2133 128.913 0
    endloop
  endfacet
  facet normal 0 0 -1
    outer loop
      vertex 75 132.451 0
      vertex 80.2133 128.913 0
      vertex 9.78669 113.944 0
    endloop
  endfacet
  facet normal 0 0 -1
    outer loop
      vertex 9.78669 113.944 0
      vertex 80.2133 128.913 0
      vertex 81 121.429 0
    endloop
  endfacet
  facet normal 0 0 -1
    outer loop
      vertex 9.78669 113.944 0
      vertex 81 121.429 0
      vertex 80.2133 113.944 0
    endloop
  endfacet
  facet normal 0 0 -1
    outer loop
      vertex 9.78669 113.944 0
      vertex 80.2133 113.944 0
      vertex 77.8876 106.786 0
    endloop
  endfacet
  facet normal 0 0 -1
    outer loop
      vertex 9.78669 113.944 0
      vertex 77.8876 106.786 0
      vertex 74.1246 100.268 0
    endloop
  endfacet
  facet normal 0 0 -1
    outer loop
      vertex 9.78669 113.944 0
      vertex 74.1246 100.268 0
      vertex 69.0887 94.6754 0
    endloop
  endfacet
  facet normal 0 0 -1
    outer loop
      vertex 9.78669 113.944 0
      vertex 69.0887 94.6754 0
      vertex 63 90.2517 0
    endloop
  endfacet
  facet normal 0 0 -1
    outer loop
      vertex 9.78669 113.944 0
      vertex 63 90.2517 0
      vertex 56.1246 87.1905 0
    endloop
  endfacet
  facet normal 0 0 -1
    outer loop
      vertex 9.78669 113.944 0
      vertex 56.1246 87.1905 0
      vertex 48.763 85.6258 0
    endloop
  endfacet
  facet normal 0 0 -1
    outer loop
      vertex 9.78669 113.944 0
      vertex 48.763 85.6258 0
      vertex 41.237 85.6258 0
    endloop
  endfacet
  facet normal 0 0 -1
    outer loop
      vertex 9.78669 113.944 0
      vertex 41.237 85.6258 0
      vertex 33.8754 87.1905 0
    endloop
  endfacet
  facet normal 0 0 -1
    outer loop
      vertex 9.78669 113.944 0
      vertex 33.8754 87.1905 0
      vertex 27 90.2517 0
    endloop
  endfacet
  facet normal 0 0 -1
    outer loop
      vertex 9.78669 113.944 0
      vertex 27 90.2517 0
      vertex 20.9113 94.6754 0
    endloop
  endfacet
  facet normal 0 0 -1
    outer loop
      vertex 9.78669 113.944 0
      vertex 20.9113 94.6754 0
      vertex 15.8754 100.268 0
    endloop
  endfacet
  facet normal 0 0 -1
    outer loop
      vertex 9.78669 113.944 0
      vertex 15.8754 100.268 0
      vertex 12.1124 106.786 0
    endloop
  endfacet
endsolid OpenSCAD_Model
